<?xml version="1.0" encoding="iso-8859-1"?>
<!-- Generator: Adobe Illustrator 21.0.2, SVG Export Plug-In . SVG Version: 6.00 Build 0)  -->
<svg version="1.1" xmlns="http://www.w3.org/2000/svg" xmlns:xlink="http://www.w3.org/1999/xlink" x="0px" y="0px"
	 viewBox="0 0 64 64" style="enable-background:new 0 0 64 64;" xml:space="preserve">
<g id="Layer_1">
	
		<linearGradient id="SVGID_1_" gradientUnits="userSpaceOnUse" x1="-486.0631" y1="-284.9685" x2="-485.0631" y2="-284.9685" gradientTransform="matrix(-31.6671 0 0 31.6671 -15374.877 9038.626)">
		<stop  offset="0" style="stop-color:#C5F1FF"/>
		<stop  offset="1" style="stop-color:#E9FBFF"/>
	</linearGradient>
	<path style="fill:url(#SVGID_1_);" d="M5.5,12h-2C2.119,12,1,13.119,1,14.5S2.119,17,3.5,17h2C6.881,17,8,15.881,8,14.5
		S6.881,12,5.5,12"/>
	
		<radialGradient id="SVGID_2_" cx="-475.9055" cy="-290.0473" r="1" gradientTransform="matrix(46.8917 0 0 -46.8917 22347.998 -13564.7988)" gradientUnits="userSpaceOnUse">
		<stop  offset="0" style="stop-color:#C5F1FF"/>
		<stop  offset="0.3505" style="stop-color:#CDF3FF"/>
		<stop  offset="0.9073" style="stop-color:#E4FAFF"/>
		<stop  offset="1" style="stop-color:#E9FBFF"/>
	</radialGradient>
	<path style="fill:url(#SVGID_2_);" d="M12,36H7c-2.209,0-4,1.791-4,4c0,2.209,1.791,4,4,4h0.5c1.381,0,2.5,1.119,2.5,2.5l0,0l0,0
		c0,1.381-1.119,2.5-2.5,2.5h-4C2.119,49,1,50.119,1,51.5C1,52.881,2.119,54,3.5,54H12V36 M56.893,33H52v6v19h5.357
		c1.308,0,2.499-0.941,2.63-2.242C59.996,55.67,60,55.583,60,55.497C59.999,54.118,58.88,53,57.5,53H56c-0.553,0-1-0.447-1-1l0,0
		l0,0c0-0.553,0.447-1,1-1h3c2.211,0,4.003-1.794,4-4.005c0-0.128-0.006-0.257-0.019-0.388C62.783,44.527,60.917,43,58.828,43H57.17
		c-1.625,0-3.081-1.217-3.166-2.839C54.001,40.107,54,40.053,54,40c0.001-1.656,1.344-3,3-3c1.106,0,2.002-0.897,2-2.003
		c0-0.109-0.009-0.22-0.027-0.333C58.812,33.681,57.89,33,56.893,33 M12,21.081H4.459C2.549,21.081,1,22.63,1,24.541
		C1,26.451,2.549,28,4.459,28H12V21.081 M57,14h-5v16h7c2.209,0,4-1.791,4-4s-1.791-4-4-4h-3c-1.104,0-2-0.895-2-2l0,0l0,0
		c0-1.104,0.895-2,2-2h1c1.104,0,2-0.895,2-2C59,14.896,58.104,14,57,14"/>
	
		<linearGradient id="SVGID_3_" gradientUnits="userSpaceOnUse" x1="-483.7441" y1="-295.5193" x2="-482.7441" y2="-295.5193" gradientTransform="matrix(2.000000e-15 -25.6404 -25.6404 -2.000000e-15 -7532.5435 -12370.7734)">
		<stop  offset="0" style="stop-color:#F5CB63"/>
		<stop  offset="0.0759" style="stop-color:#F6CC6A"/>
		<stop  offset="0.4577" style="stop-color:#FDD088"/>
		<stop  offset="0.6721" style="stop-color:#FFD194"/>
		<stop  offset="1" style="stop-color:#FFD194"/>
	</linearGradient>
	<path style="fill:url(#SVGID_3_);" d="M48.997,7c-0.119,0-0.238,0.007-0.358,0.022c-0.35,0.043-0.702,0.15-1.043,0.331
		l-10.19,5.395C38.923,13.176,52,28.155,52,32v-2V14v-3.996l0,0C52,8.261,50.568,7,48.997,7"/>
	
		<linearGradient id="SVGID_4_" gradientUnits="userSpaceOnUse" x1="-483.6502" y1="-295.4698" x2="-482.6502" y2="-295.4698" gradientTransform="matrix(2.000000e-15 -26.3 -26.3 -2.000000e-15 -7725.4897 -12681.6904)">
		<stop  offset="0" style="stop-color:#FF8450"/>
		<stop  offset="0.2253" style="stop-color:#FE856A"/>
		<stop  offset="0.5278" style="stop-color:#FD8586"/>
		<stop  offset="0.7927" style="stop-color:#FC8697"/>
		<stop  offset="0.9892" style="stop-color:#FC869D"/>
		<stop  offset="1" style="stop-color:#FC869D"/>
	</linearGradient>
	<path style="fill:url(#SVGID_4_);" d="M46.999,12c-0.311,0-0.63,0.074-0.934,0.235l-4.347,2.301
		c2.974,1.667,5.486,4.071,7.282,6.961v-7.494C49,12.84,48.046,12,46.999,12"/>
	
		<linearGradient id="SVGID_6_" gradientUnits="userSpaceOnUse" x1="-483.7441" y1="-295.457" x2="-482.7441" y2="-295.457" gradientTransform="matrix(2.000000e-15 -25.6404 -25.6404 -2.000000e-15 -7556.353 -12370.7734)">
		<stop  offset="0" style="stop-color:#F5CB63"/>
		<stop  offset="0.0759" style="stop-color:#F6CC6A"/>
		<stop  offset="0.4577" style="stop-color:#FDD088"/>
		<stop  offset="0.6721" style="stop-color:#FFD194"/>
		<stop  offset="1" style="stop-color:#FFD194"/>
	</linearGradient>
	<path style="fill:url(#SVGID_6_);" d="M15.003,7C13.431,7,12,8.261,12,10.004l0,0v11.077V28v4l0,0c0-0.012,0-0.024,0-0.036
		c0-0.003,0-0.005,0-0.008c0-0.009,0-0.02,0-0.03c0-0.002,0-0.004,0-0.006c0.015-3.816,13.077-18.745,14.593-19.174l-10.19-5.395
		c-0.346-0.183-0.704-0.291-1.06-0.333C15.229,7.006,15.116,7,15.003,7"/>
	
		<linearGradient id="SVGID_7_" gradientUnits="userSpaceOnUse" x1="-483.6502" y1="-295.131" x2="-482.6502" y2="-295.131" gradientTransform="matrix(2.000000e-15 -26.3 -26.3 -2.000000e-15 -7743.2988 -12681.6904)">
		<stop  offset="0" style="stop-color:#FF8450"/>
		<stop  offset="0.2253" style="stop-color:#FE856A"/>
		<stop  offset="0.5278" style="stop-color:#FD8586"/>
		<stop  offset="0.7927" style="stop-color:#FC8697"/>
		<stop  offset="0.9892" style="stop-color:#FC869D"/>
		<stop  offset="1" style="stop-color:#FC869D"/>
	</linearGradient>
	<path style="fill:url(#SVGID_7_);" d="M17.001,12C15.954,12,15,12.84,15,14.003v7.494c1.796-2.89,4.308-5.294,7.282-6.961
		l-4.347-2.301C17.631,12.074,17.312,12,17.001,12"/>
	<linearGradient id="SVGID_8_" gradientUnits="userSpaceOnUse" x1="32" y1="58" x2="32" y2="11.9999">
		<stop  offset="0" style="stop-color:#FFC050"/>
		<stop  offset="0.0036" style="stop-color:#FFC050"/>
		<stop  offset="0.6414" style="stop-color:#FFBE75"/>
		<stop  offset="1" style="stop-color:#FFBD85"/>
		<stop  offset="1" style="stop-color:#FFBD85"/>
	</linearGradient>
	<path style="fill:url(#SVGID_8_);" d="M49,21.497c-1.796-2.89-4.308-5.294-7.282-6.961c-1.349-0.756-2.794-1.36-4.311-1.789l0,0
		l-0.026,0.014c-1.701-0.479-3.485-0.756-5.333-0.761c-0.003,0-0.005,0-0.008,0c-0.005,0-0.009,0-0.014,0c-0.009,0-0.018,0-0.027,0
		s-0.018,0-0.027,0c-0.005,0-0.009,0-0.014,0c-0.003,0-0.005,0-0.008,0c-1.848,0.005-3.632,0.281-5.333,0.761l-0.026-0.014l0,0
		c-1.516,0.429-2.961,1.033-4.311,1.789c-2.974,1.667-5.486,4.071-7.282,6.961c-1.9,3.057-3,6.658-3,10.503v1l0,25h0h9h22h9h0V33v-1
		C52,28.155,50.9,24.554,49,21.497z"/>
	<linearGradient id="SVGID_9_" gradientUnits="userSpaceOnUse" x1="32" y1="22.279" x2="32" y2="51.2787">
		<stop  offset="0" style="stop-color:#FFE79F"/>
		<stop  offset="0.2582" style="stop-color:#FFE9A7"/>
		<stop  offset="0.6602" style="stop-color:#FFEFBD"/>
		<stop  offset="1" style="stop-color:#FFF5D5"/>
	</linearGradient>
	<path style="fill:url(#SVGID_9_);" d="M42,58H22V39c0-5.523,4.477-10,10-10h0c5.523,0,10,4.477,10,10V58z"/>
	
		<linearGradient id="SVGID_10_" gradientUnits="userSpaceOnUse" x1="-485.0526" y1="-298.1316" x2="-484.0526" y2="-298.1316" gradientTransform="matrix(1.000000e-15 -19 -19 -1.000000e-15 -5617.5 -9158)">
		<stop  offset="0" style="stop-color:#FFA241"/>
		<stop  offset="0.9257" style="stop-color:#FFAF6C"/>
		<stop  offset="1" style="stop-color:#FFB070"/>
		<stop  offset="1" style="stop-color:#FFB070"/>
	</linearGradient>
	<path style="fill:url(#SVGID_10_);" d="M52,39L52,39h-5c-1.212,0-2.182,1.093-1.972,2.342C45.194,42.325,46.124,43,47.121,43H48
		c0.553,0,1,0.447,1,1c0,0.553-0.447,1-1,1h-1.878c-0.998,0-1.928,0.675-2.094,1.658C43.818,47.907,44.788,49,46,49h2.5
		c0.828,0,1.5,0.672,1.5,1.5c0,0.828-0.672,1.5-1.5,1.5H42v6h6.631H52V39"/>
	
		<linearGradient id="SVGID_11_" gradientUnits="userSpaceOnUse" x1="-489.779" y1="-307.2" x2="-488.8631" y2="-307.2" gradientTransform="matrix(1.000000e-15 -10 -10 -1.000000e-15 -3040 -4856.5)">
		<stop  offset="0" style="stop-color:#F5CB63"/>
		<stop  offset="0.0759" style="stop-color:#F6CC6A"/>
		<stop  offset="0.4577" style="stop-color:#FDD088"/>
		<stop  offset="0.6721" style="stop-color:#FFD194"/>
		<stop  offset="1" style="stop-color:#FFD194"/>
	</linearGradient>
	<path style="fill:url(#SVGID_11_);" d="M28,29.841c-0.714,0.314-1.384,0.71-2,1.173V36c0,1.657,1.343,3,3,3c1.657,0,3-1.343,3-3
		c0,1.657,1.343,3,3,3s3-1.343,3-3v-4.986c-0.616-0.464-1.286-0.859-2-1.173L28,29.841"/>
	
		<linearGradient id="SVGID_12_" gradientUnits="userSpaceOnUse" x1="-471.5028" y1="-271.3525" x2="-470.5028" y2="-271.3525" gradientTransform="matrix(1.000000e-15 11.5332 11.5332 -1.000000e-15 3161.5732 5461.5806)">
		<stop  offset="0" style="stop-color:#9097A2"/>
		<stop  offset="0.2781" style="stop-color:#7C8390"/>
		<stop  offset="0.7329" style="stop-color:#616876"/>
		<stop  offset="1" style="stop-color:#575E6D"/>
		<stop  offset="1" style="stop-color:#575E6D"/>
	</linearGradient>
	<path style="fill:url(#SVGID_12_);" d="M32,29L32,29c-0.006,0-0.011,0-0.017,0h-0.002c-0.002,0-0.004,0-0.005,0
		c-0.002,0-0.004,0-0.005,0c-0.001,0-0.003,0-0.004,0l-0.001,0c-0.006,0-0.012,0-0.018,0c-0.001,0-0.003,0-0.004,0
		c-0.006,0-0.013,0-0.019,0c-0.002,0-0.004,0-0.006,0c-0.007,0-0.014,0-0.021,0c-0.003,0-0.005,0-0.008,0c-0.005,0-0.01,0-0.016,0
		c-0.004,0-0.008,0-0.012,0c-0.005,0-0.01,0-0.014,0c-0.004,0-0.008,0-0.011,0c-0.003,0-0.006,0-0.009,0c-0.008,0-0.016,0-0.023,0
		c-0.001,0-0.003,0-0.004,0c-0.75,0.015-1.48,0.114-2.181,0.287c-0.559,0.138-1.1,0.323-1.618,0.549v0.003V31c0,2.209,1.791,4,4,4
		c2.209,0,4-1.791,4-4v-1.159v-0.003c-0.595-0.26-1.219-0.465-1.866-0.607c-0.609-0.134-1.239-0.212-1.884-0.228c0,0,0,0,0,0
		c-0.016,0-0.031-0.001-0.047-0.001c-0.003,0-0.006,0-0.008,0c-0.006,0-0.012,0-0.018,0c-0.004,0-0.009,0-0.013,0
		c-0.003,0-0.007,0-0.01,0c-0.006,0-0.012,0-0.018,0c-0.003,0-0.006,0-0.009,0c-0.006,0-0.011,0-0.017,0c-0.002,0-0.005,0-0.007,0
		c-0.007,0-0.014,0-0.022,0c-0.002,0-0.004,0-0.006,0c-0.007,0-0.013,0-0.02,0c-0.001,0-0.003,0-0.004,0c-0.006,0-0.012,0-0.018,0
		l-0.001,0c-0.001,0-0.003,0-0.004,0c-0.002,0-0.003,0-0.005,0c-0.002,0-0.004,0-0.005,0h-0.002C32.011,29,32.006,29,32,29L32,29"/>
	
		<linearGradient id="SVGID_13_" gradientUnits="userSpaceOnUse" x1="-482.0869" y1="-291.9674" x2="-481.0869" y2="-291.9674" gradientTransform="matrix(3.000000e-15 -46 -46 -3.000000e-15 -13408 -22118)">
		<stop  offset="0" style="stop-color:#FFC96A"/>
		<stop  offset="0.0036" style="stop-color:#FFC96A"/>
		<stop  offset="0.5775" style="stop-color:#FFC887"/>
		<stop  offset="1" style="stop-color:#FFC797"/>
		<stop  offset="1" style="stop-color:#FFC797"/>
	</linearGradient>
	<path style="fill:url(#SVGID_13_);" d="M31.271,12.037c-0.035,0.001-0.069,0.003-0.104,0.004c-0.68,0.029-1.35,0.092-2.011,0.186
		l-0.025,0.004c-0.498,0.072-0.989,0.163-1.474,0.272c-0.189,0.042-0.377,0.087-0.564,0.135l-0.001,0
		c-0.005,0.001-0.011,0.003-0.016,0.004C23.05,13.674,19.508,15.936,16.87,19h-0.019c-0.094,0.109-0.176,0.228-0.267,0.339
		c-0.182,0.221-0.358,0.444-0.53,0.673c-0.146,0.193-0.292,0.386-0.432,0.585c-0.16,0.229-0.312,0.466-0.463,0.702
		c-0.254,0.397-0.492,0.804-0.719,1.219c-0.088,0.161-0.183,0.318-0.267,0.482h0.005c-1.372,2.687-2.167,5.713-2.18,8.921
		c0,0.002,0,0.004,0,0.006c0,0.01,0,0.02,0,0.03c0,0.003,0,0.005,0,0.008c0,0.012,0,0.024,0,0.036l0,0v0.641V36v1h3.412
		c1.139,0,2.202-0.722,2.497-1.821C18.355,33.516,17.096,32,15.5,32H15c-0.553,0-1-0.447-1-1c0-0.553,0.447-1,1-1h4
		c1.215,0,2.177-1.083,1.973-2.336C20.812,26.681,19.89,26,18.893,26H17.5c-0.828,0-1.5-0.672-1.5-1.5c0-0.828,0.672-1.5,1.5-1.5H20
		h0.086c0.207-0.581,0.764-1,1.414-1h5c0.634,0,1.178,0.398,1.397,0.956c0.944-0.172,1.759-0.836,2.012-1.777
		C30.355,19.516,29.096,18,27.5,18H25c-0.553,0-1-0.447-1-1c0-0.553,0.447-1,1-1h6c1.212,0,2.182-1.093,1.972-2.342
		C32.828,12.807,32.109,12.188,31.271,12.037"/>
	<linearGradient id="SVGID_14_" gradientUnits="userSpaceOnUse" x1="32" y1="58" x2="32" y2="44">
		<stop  offset="0" style="stop-color:#FFF0BD"/>
		<stop  offset="1" style="stop-color:#FFE69E"/>
	</linearGradient>
	<path style="fill:url(#SVGID_14_);" d="M39.658,50.029C38.675,50.194,38,51.124,38,52.122L38,54c0,0.552-0.448,1-1,1l0,0
		c-0.552,0-1-0.448-1-1v-5.5c0-0.828-0.672-1.5-1.5-1.5S33,47.672,33,48.5V50c0,0.552-0.448,1-1,1l0,0c-0.552,0-1-0.448-1-1l0-3.878
		c0-0.997-0.675-1.927-1.658-2.093C28.093,43.819,27,44.788,27,46v7c0,0.552-0.448,1-1,1h0c-0.552,0-1-0.448-1-1v-2.5
		c0-0.828-0.672-1.5-1.5-1.5S22,49.672,22,50.5V58h20v-6C42,50.788,40.907,49.819,39.658,50.029z"/>
	<linearGradient id="SVGID_15_" gradientUnits="userSpaceOnUse" x1="40.5012" y1="30" x2="40.5012" y2="21">
		<stop  offset="0" style="stop-color:#FF5840"/>
		<stop  offset="0.0072" style="stop-color:#FF5840"/>
		<stop  offset="0.9892" style="stop-color:#FA528C"/>
		<stop  offset="1" style="stop-color:#FA528C"/>
	</linearGradient>
	<path style="fill:url(#SVGID_15_);" d="M45.95,23.439c-0.216-1.175-1.162-2.145-2.334-2.378c-1.048-0.208-2.022,0.131-2.695,0.781
		c-0.238,0.23-0.601,0.23-0.839,0c-0.673-0.65-1.647-0.988-2.695-0.781c-1.171,0.232-2.117,1.201-2.334,2.374
		c-0.202,1.093,0.197,2.092,0.911,2.756l-0.007,0.005l3.906,3.56c0.351,0.324,0.924,0.324,1.275,0l3.881-3.538l0.009-0.021
		C45.748,25.535,46.151,24.535,45.95,23.439z"/>
	<linearGradient id="SVGID_16_" gradientUnits="userSpaceOnUse" x1="23.491" y1="30" x2="23.491" y2="21">
		<stop  offset="0" style="stop-color:#FF5840"/>
		<stop  offset="0.0072" style="stop-color:#FF5840"/>
		<stop  offset="0.9892" style="stop-color:#FA528C"/>
		<stop  offset="1" style="stop-color:#FA528C"/>
	</linearGradient>
	<path style="fill:url(#SVGID_16_);" d="M28.939,23.439c-0.216-1.175-1.162-2.145-2.334-2.378c-1.048-0.208-2.022,0.131-2.695,0.781
		c-0.238,0.23-0.601,0.23-0.839,0c-0.673-0.65-1.647-0.988-2.695-0.781c-1.171,0.232-2.117,1.201-2.334,2.374
		c-0.202,1.093,0.197,2.092,0.911,2.756l-0.007,0.005l3.906,3.56c0.351,0.324,0.924,0.324,1.275,0l3.881-3.538l0.009-0.021
		C28.738,25.535,29.14,24.535,28.939,23.439z"/>
</g>
<g id="Layer_2">
</g>
</svg>
