<?xml version="1.0" encoding="iso-8859-1"?>
<!-- Generator: Adobe Illustrator 21.0.2, SVG Export Plug-In . SVG Version: 6.00 Build 0)  -->
<svg version="1.1" xmlns="http://www.w3.org/2000/svg" xmlns:xlink="http://www.w3.org/1999/xlink" x="0px" y="0px"
	 viewBox="0 0 64 64" style="enable-background:new 0 0 64 64;" xml:space="preserve">
<g id="Layer_1">
	<radialGradient id="SVGID_1_" cx="32.5" cy="31.5" r="29.0388" gradientUnits="userSpaceOnUse">
		<stop  offset="0" style="stop-color:#AFEEFF"/>
		<stop  offset="0.1927" style="stop-color:#BBF1FF"/>
		<stop  offset="0.7025" style="stop-color:#D7F8FF"/>
		<stop  offset="1" style="stop-color:#E1FAFF"/>
	</radialGradient>
	<path style="fill:url(#SVGID_1_);" d="M61,22h-6c-1.105,0-2-0.895-2-2c0-1.105,0.895-2,2-2h3c1.657,0,3-1.343,3-3s-1.343-3-3-3
		h-4.5c-0.828,0-1.5-0.672-1.5-1.5S52.672,9,53.5,9h0.04V8.996C54.896,8.974,56,7.861,56,6.5C56,5.125,54.875,4,53.5,4h-26
		C26.125,4,25,5.125,25,6.5c0,1.361,1.104,2.474,2.46,2.496V9h0.04h2c0.828,0,1.5,0.672,1.5,1.5S30.328,12,29.5,12
		c-1.381,0-2.5,1.119-2.5,2.5v1c0,0.171,0.018,0.338,0.05,0.5H20v16H4.5C3.119,32,2,33.119,2,34.5C2,35.881,3.119,37,4.5,37h3
		c1.381,0,2.5,1.119,2.5,2.5c0,1.381-1.119,2.5-2.5,2.5H7c-1.657,0-3,1.343-3,3s1.343,3,3,3h9.5c1.381,0,2.5,1.119,2.5,2.5
		c0,1.381-1.119,2.5-2.5,2.5H14c-1.657,0-3,1.343-3,3s1.343,3,3,3h32c1.657,0,3-1.343,3-3s-1.343-3-3-3h-0.5
		c-1.381,0-2.5-1.119-2.5-2.5c0-1.381,1.119-2.5,2.5-2.5H51c1.657,0,3-1.343,3-3s-1.343-3-3-3h-5V26h15c1.105,0,2-0.895,2-2
		C63,22.895,62.105,22,61,22z"/>
	<g>
		<linearGradient id="SVGID_2_" gradientUnits="userSpaceOnUse" x1="12.5" y1="62" x2="12.5" y2="45">
			<stop  offset="1.082549e-07" style="stop-color:#FF8B67"/>
			<stop  offset="0.847" style="stop-color:#FFA76A"/>
			<stop  offset="1" style="stop-color:#FFAD6B"/>
			<stop  offset="1" style="stop-color:#FFAD6B"/>
		</linearGradient>
		<path style="fill:url(#SVGID_2_);" d="M19.819,46.181C19.504,45.487,18.808,45,18,45l-7.878,0c-0.997,0-1.928,0.675-2.093,1.658
			C7.819,47.907,8.788,49,10,49h0c0.552,0,1,0.448,1,1v0c0,0.552-0.448,1-1,1H6.122c-0.997,0-1.928,0.675-2.093,1.658
			C3.819,53.907,4.788,55,6,55l2,0c1.657,0,3,1.343,3,3l0,1.878c0,0.997,0.675,1.928,1.658,2.093C13.907,62.181,15,61.212,15,60l0-4
			c0-0.552,0.448-1,1-1h0c0.552,0,1,0.448,1,1l0-0.122c0,0.997,0.675,1.928,1.658,2.093C19.907,58.181,21,57.212,21,56v-8
			C21,47.192,20.513,46.496,19.819,46.181z"/>
		<linearGradient id="SVGID_3_" gradientUnits="userSpaceOnUse" x1="19.805" y1="55.0074" x2="19.805" y2="37.4121">
			<stop  offset="0" style="stop-color:#F1BB5D"/>
			<stop  offset="0.4256" style="stop-color:#FBC080"/>
			<stop  offset="0.6721" style="stop-color:#FFC28F"/>
			<stop  offset="1" style="stop-color:#FFC28F"/>
		</linearGradient>
		<path style="fill:url(#SVGID_3_);" d="M28.015,40.839L14.434,54.419c-0.784,0.784-2.055,0.784-2.839,0l0,0
			c-0.784-0.784-0.784-2.055,0-2.839L25.176,38c0.784-0.784,2.055-0.784,2.839,0l0,0C28.799,38.784,28.799,40.055,28.015,40.839z"/>
	</g>
	<linearGradient id="SVGID_4_" gradientUnits="userSpaceOnUse" x1="32" y1="55.026" x2="32" y2="10">
		<stop  offset="0" style="stop-color:#FF634D"/>
		<stop  offset="0.2043" style="stop-color:#FE6464"/>
		<stop  offset="0.5209" style="stop-color:#FC6581"/>
		<stop  offset="0.7936" style="stop-color:#FA6694"/>
		<stop  offset="0.9892" style="stop-color:#FA669A"/>
		<stop  offset="1" style="stop-color:#FA669A"/>
	</linearGradient>
	<path style="fill:url(#SVGID_4_);" d="M45.16,10.087c-5.098-0.533-9.742,1.422-12.915,4.782c-0.135,0.143-0.354,0.143-0.488,0
		c-3.173-3.36-7.817-5.315-12.915-4.782c-7.199,0.752-13.034,6.61-13.759,13.812c-0.53,5.264,1.588,10.041,5.167,13.205
		l19.785,17.187c1.128,0.98,2.806,0.98,3.935,0l19.785-17.187c3.578-3.164,5.697-7.941,5.167-13.205
		C58.193,16.697,52.359,10.839,45.16,10.087z"/>
	
		<linearGradient id="SVGID_6_" gradientUnits="userSpaceOnUse" x1="-283.7358" y1="100.6528" x2="-282.7358" y2="100.6528" gradientTransform="matrix(3.000000e-15 -45.0261 -45.0261 -3.000000e-15 4546.5044 -12720.4873)">
		<stop  offset="0" style="stop-color:#FF735D"/>
		<stop  offset="0.1372" style="stop-color:#FE746B"/>
		<stop  offset="0.4865" style="stop-color:#FC758A"/>
		<stop  offset="0.7829" style="stop-color:#FA769D"/>
		<stop  offset="0.9892" style="stop-color:#FA76A4"/>
		<stop  offset="1" style="stop-color:#FA76A4"/>
	</linearGradient>
	<path style="fill:url(#SVGID_6_);" d="M20.11,10.011c-0.421,0.01-0.843,0.031-1.27,0.076l0,0
		c-7.199,0.752-13.034,6.61-13.76,13.811l0,0c-0.035,0.349-0.057,0.695-0.069,1.039c-0.004,0.105-0.001,0.209-0.003,0.313
		c-0.004,0.239-0.006,0.478,0.001,0.715c0.004,0.118,0.013,0.235,0.019,0.353c0.012,0.223,0.025,0.444,0.047,0.663
		c0.011,0.117,0.025,0.232,0.04,0.349c0.025,0.221,0.055,0.44,0.091,0.659c0.018,0.107,0.036,0.215,0.057,0.322
		c0.042,0.227,0.088,0.452,0.14,0.676c0.022,0.094,0.044,0.188,0.067,0.281c0.06,0.239,0.127,0.475,0.197,0.709l0.069,0.225
		c0.083,0.26,0.173,0.516,0.27,0.77l0.053,0.141c0.091,0.233,0.186,0.463,0.288,0.69c0.03,0.066,0.059,0.131,0.09,0.197l0,0l0,0H16
		c2.209,0,4-1.791,4-4c0-2.209-1.791-4-4-4c-1.657,0-3-1.343-3-3c0-1.657,1.343-3,3-3h4c2.209,0,4-1.791,4-4
		C24,11.829,22.268,10.071,20.11,10.011"/>
	<linearGradient id="SVGID_7_" gradientUnits="userSpaceOnUse" x1="43.5" y1="55.023" x2="43.5" y2="22">
		<stop  offset="0" style="stop-color:#FF5840"/>
		<stop  offset="0.0072" style="stop-color:#FF5840"/>
		<stop  offset="0.9892" style="stop-color:#FA528C"/>
		<stop  offset="1" style="stop-color:#FA528C"/>
	</linearGradient>
	<path style="fill:url(#SVGID_7_);" d="M58.919,23.898c-0.065-0.646-0.185-1.277-0.33-1.898H39c-2.761,0-5,2.239-5,5s2.239,5,5,5
		h1.5c1.381,0,2.5,1.119,2.5,2.5c0,1.381-1.119,2.5-2.5,2.5H31c-1.657,0-3,1.343-3,3v0c0,1.657,1.343,3,3,3h0.853
		c1.52,0,3.008,1.225,3.136,2.739c0.15,1.78-1.254,3.269-3.004,3.261c-1.028-0.005-2.032,0.434-2.531,1.332
		C28.166,52.65,29.808,55,32,55l0.035,0.023c0.69-0.008,1.378-0.25,1.933-0.732l19.785-17.187
		C57.331,33.939,59.45,29.162,58.919,23.898z"/>
	
		<linearGradient id="SVGID_8_" gradientUnits="userSpaceOnUse" x1="-280.1634" y1="103.8641" x2="-278.8301" y2="103.8641" gradientTransform="matrix(2.000000e-15 -24.6689 -24.6689 -2.000000e-15 2588.2163 -6865.7319)">
		<stop  offset="0" style="stop-color:#FF735D"/>
		<stop  offset="0.1372" style="stop-color:#FE746B"/>
		<stop  offset="0.4865" style="stop-color:#FC758A"/>
		<stop  offset="0.7829" style="stop-color:#FA769D"/>
		<stop  offset="0.9892" style="stop-color:#FA76A4"/>
		<stop  offset="1" style="stop-color:#FA76A4"/>
	</linearGradient>
	<path style="fill:url(#SVGID_8_);" d="M26,24c-2.21,0-4,1.791-4,4c0,2.209,1.79,4,4,4c2.21,0,4-1.791,4-4C30,25.791,28.21,24,26,24
		"/>
	<g>
		<linearGradient id="SVGID_9_" gradientUnits="userSpaceOnUse" x1="46.3013" y1="29" x2="46.3013" y2="10.3973">
			<stop  offset="0" style="stop-color:#F1BB5D"/>
			<stop  offset="0.4256" style="stop-color:#FBC080"/>
			<stop  offset="0.6721" style="stop-color:#FFC28F"/>
			<stop  offset="1" style="stop-color:#FFC28F"/>
		</linearGradient>
		<path style="fill:url(#SVGID_9_);" d="M55.015,13.824L40.427,28.412c-0.784,0.784-2.055,0.784-2.839,0l0,0
			c-0.784-0.784-0.784-2.055,0-2.839l14.588-14.588c0.784-0.784,2.055-0.784,2.839,0l0,0C55.799,11.769,55.799,13.04,55.015,13.824z
			"/>
		<linearGradient id="SVGID_10_" gradientUnits="userSpaceOnUse" x1="52.9977" y1="6" x2="52.9977" y2="20.0046">
			<stop  offset="0" style="stop-color:#A4A4A4"/>
			<stop  offset="0.6187" style="stop-color:#808080"/>
			<stop  offset="1" style="stop-color:#6F6F6F"/>
			<stop  offset="1" style="stop-color:#6F6F6F"/>
		</linearGradient>
		<path style="fill:url(#SVGID_10_);" d="M52.335,19.335l-5.67-5.67c-1.103-1.103-0.801-2.963,0.594-3.661l9.771-3.866
			c0.807-0.301,1.715-0.103,2.324,0.506l0.001,0.001c0.609,0.609,0.807,1.517,0.506,2.324l-3.866,9.771
			C55.298,20.136,53.438,20.438,52.335,19.335z"/>
	</g>
</g>
<g id="Layer_2">
</g>
</svg>
