<?xml version="1.0" encoding="iso-8859-1"?>
<!-- Generator: Adobe Illustrator 21.0.2, SVG Export Plug-In . SVG Version: 6.00 Build 0)  -->
<svg version="1.1" xmlns="http://www.w3.org/2000/svg" xmlns:xlink="http://www.w3.org/1999/xlink" x="0px" y="0px"
	 viewBox="0 0 64 64" style="enable-background:new 0 0 64 64;" xml:space="preserve">
<g id="Layer_1">
	
		<linearGradient id="SVGID_1_" gradientUnits="userSpaceOnUse" x1="-187.6931" y1="-96" x2="-186.6931" y2="-96" gradientTransform="matrix(22.2899 0 0 -22.2899 4215.9136 -2135.3318)">
		<stop  offset="0" style="stop-color:#B8EFFF"/>
		<stop  offset="1" style="stop-color:#E5FAFF"/>
	</linearGradient>
	<path style="fill:url(#SVGID_1_);" d="M49.5,2h-3C45.119,2,44,3.119,44,4.5S45.119,7,46.5,7h3C50.881,7,52,5.881,52,4.5
		S50.881,2,49.5,2"/>
	
		<linearGradient id="SVGID_2_" gradientUnits="userSpaceOnUse" x1="-194.8859" y1="-96" x2="-193.8859" y2="-96" gradientTransform="matrix(-33.265 0 0 33.265 -6450.3862 3229.9431)">
		<stop  offset="0" style="stop-color:#B8EFFF"/>
		<stop  offset="1" style="stop-color:#E5FAFF"/>
	</linearGradient>
	<path style="fill:url(#SVGID_2_);" d="M4.5,33C2.567,33,1,34.567,1,36.5C1,38.433,2.567,40,4.5,40C6.433,40,8,38.433,8,36.5
		C8,34.567,6.433,33,4.5,33"/>
	
		<radialGradient id="SVGID_3_" cx="-189.3704" cy="-96" r="1" gradientTransform="matrix(36.5077 0 0 -36.5077 6944.9795 -3471.2397)" gradientUnits="userSpaceOnUse">
		<stop  offset="0" style="stop-color:#B8EFFF"/>
		<stop  offset="0.6425" style="stop-color:#D4F6FF"/>
		<stop  offset="1" style="stop-color:#E5FAFF"/>
	</radialGradient>
	<path style="fill:url(#SVGID_3_);" d="M23,30h-3.171c-0.406,1.149-1.492,1.977-2.775,2c0,0-0.001,0-0.001,0
		c-0.003,0-0.005,0-0.007,0c-0.001,0-0.002,0-0.002,0c-0.003,0-0.006,0-0.009,0c-0.002,0-0.003,0-0.005,0c-0.001,0-0.002,0-0.004,0
		c-0.002,0-0.003,0-0.005,0c-0.001,0-0.002,0-0.004,0c-0.002,0-0.004,0-0.006,0c-0.001,0-0.002,0-0.003,0c-0.003,0-0.006,0-0.009,0
		l0,0h-2c-2.209,0-4,1.791-4,4c0,2.209,1.791,4,4,4h2c1.104,0,2,0.896,2,2l0,0l0,0c0,1.104-0.895,2-2,2h-7c-2.761,0-5,2.238-5,5
		s2.239,5,5,5h4c1.933,0,3.5,1.567,3.5,3.5c0,1.933,1.567,3.5,3.5,3.5h7.688c-0.054-0.154-0.096-0.314-0.126-0.479L26,46h-0.51
		c-1.444,0-2.683-1.028-2.949-2.447l-2.119-11.302l0,0L20,30H23L23,30 M54.5,11H44.111c0.816,1.401,1.397,2.954,1.682,4.604
		c0.429,2.483,0.17,4.85-0.579,6.988c-0.01,0.03-0.016,0.06-0.018,0.089C45.188,22.85,45.319,23,45.5,23c1.933,0,3.5,1.567,3.5,3.5
		l0,0l0,0c0,1.933-1.567,3.5-3.5,3.5H40l0,0h4l-1.76,9.389l0,0l-0.781,4.164C41.193,44.972,39.954,46,38.51,46H38l-2.563,14.521
		c-0.029,0.165-0.071,0.325-0.126,0.479H40h14c2.209,0,4-1.791,4-4c0-2.209-1.791-4-4-4h-5.5c-1.933,0-3.5-1.567-3.5-3.5l0,0l0,0
		c0-1.933,1.567-3.5,3.5-3.5H52c2.209,0,4-1.791,4-4c0-2.209-1.791-4-4-4c-1.657,0-3-1.343-3-3l0,0l0,0c0-1.657,1.343-3,3-3h3.5
		c2.485,0,4.5-2.015,4.5-4.5c0-2.485-2.015-4.5-4.5-4.5H51.5c-1.381,0-2.5-1.12-2.5-2.5l0,0l0,0c0-1.381,1.119-2.5,2.5-2.5h2.886
		c1.67,0,3.195-1.122,3.537-2.757C57.975,14.991,58,14.742,58,14.498C57.999,12.574,56.424,11,54.5,11 M24.785,6h-13.17
		c-1.67,0-3.195,1.122-3.537,2.757C8.025,9.009,8,9.258,8,9.502C8.001,11.426,9.576,13,11.5,13h1c1.381,0,2.5,1.119,2.5,2.5l0,0l0,0
		c0,1.38-1.119,2.5-2.5,2.5H7c-2.209,0-4,1.791-4,4c0,2.209,1.791,4,4,4h8.035c0.243-1.696,1.701-3,3.465-3
		c0.213,0,0.356-0.208,0.286-0.409c-0.501-1.431-0.783-2.964-0.786-4.566c0,0,0-0.001,0-0.002c0-0.003,0-0.005,0-0.008
		c0-0.005,0-0.01,0-0.015l0,0l0,0l0,0c0-0.007,0-0.014,0-0.021c0-0.002,0-0.004,0-0.007c0-0.005,0-0.01,0-0.015
		c0-0.003,0-0.005,0-0.008c0-0.005,0-0.009,0-0.013c0-0.003,0-0.006,0-0.009c0-0.004,0-0.008,0-0.013c0-0.003,0-0.006,0-0.009
		c0-0.004,0-0.009,0-0.013c0-0.003,0-0.006,0-0.009c0-0.004,0-0.009,0-0.013c0-0.003,0-0.006,0-0.009c0-0.005,0-0.009,0-0.014
		c0-0.006,0-0.012,0-0.018c0-0.003,0-0.006,0-0.01c0-0.004,0-0.008,0-0.012c0-0.003,0-0.006,0-0.009c0-0.004,0-0.008,0-0.013
		c0-0.003,0-0.005,0-0.008c0-0.004,0-0.009,0-0.014c0-0.002,0-0.004,0-0.006c0-0.005,0-0.01,0-0.015c0-0.002,0-0.003,0-0.005
		C18.093,12.756,20.788,8.408,24.785,6"/>
	
		<linearGradient id="SVGID_4_" gradientUnits="userSpaceOnUse" x1="-192" y1="-102.0132" x2="-191" y2="-102.0132" gradientTransform="matrix(1.000000e-15 -16 -16 -1.000000e-15 -1600 -3026)">
		<stop  offset="0" style="stop-color:#FFB74E"/>
		<stop  offset="0.0036" style="stop-color:#FFB74E"/>
		<stop  offset="0.1676" style="stop-color:#FFB659"/>
		<stop  offset="0.6995" style="stop-color:#FFB577"/>
		<stop  offset="1" style="stop-color:#FFB482"/>
		<stop  offset="1" style="stop-color:#FFB482"/>
	</linearGradient>
	<path style="fill:url(#SVGID_4_);" d="M32,33L32,33c-1.105,0-2.001,0.895-2,2l0,0l0.001,0.499c0,0.207-0.025,0.408-0.072,0.601
		l1.343,1.343l2.711-2.711C33.851,33.754,33.014,33,32,33 M20.422,32.251l2.119,11.302C22.807,44.972,24.046,46,25.49,46H26h6l0,0
		h2.171l-2.9-2.9l-2.9,2.9H25.49c-1.444,0-2.683-1.028-2.949-2.447l-0.444-2.37l2.718,2.718l3.628-3.629L23.271,35.1l-1.95,1.95
		l-0.893-4.764l0.014-0.014L20.422,32.251 M44,30L44,30l-0.086,0.457L42.1,32.271l1.242,1.241l-0.893,4.764L39.271,35.1L38,36.371
		V40l0,0c0,1.105-0.895,2-2,2c-0.061,0-0.121-0.003-0.18-0.008l1.908,1.908l4.511-4.512L44,30"/>
	
		<linearGradient id="SVGID_6_" gradientUnits="userSpaceOnUse" x1="-192" y1="-99.5098" x2="-191" y2="-99.5098" gradientTransform="matrix(2.000000e-15 -27.3516 -27.3516 -2.000000e-15 -2689.7539 -5191.5913)">
		<stop  offset="0" style="stop-color:#FFB74B"/>
		<stop  offset="0.6117" style="stop-color:#FDC06A"/>
		<stop  offset="1" style="stop-color:#FCC479"/>
	</linearGradient>
	<path style="fill:url(#SVGID_6_);" d="M38,46L38,46l-0.71,4H32c-1.104,0-2-0.895-2-2c0-1.104,0.896-2,2-2h-6l2.563,14.521
		c0.029,0.165,0.071,0.325,0.126,0.479h0.004c0.127,0.361,0.321,0.685,0.566,0.964C29.098,61.677,29,61.351,29,61
		c0-1.105,0.896-2,2-2h1c0.552,0,1-0.447,1-1c0-0.553-0.448-1-1-1c-1.104,0-2-0.896-2-2c0-1.104,0.896-2,2-2h4.765l-0.003,0.02
		L36.41,55l-0.047,0.273l-0.926,5.248c-0.029,0.165-0.071,0.325-0.126,0.479l0,0c0.054-0.154,0.096-0.314,0.126-0.479L38,46"/>
	
		<linearGradient id="SVGID_7_" gradientUnits="userSpaceOnUse" x1="-192" y1="-100.6491" x2="-191" y2="-100.6491" gradientTransform="matrix(1.000000e-15 -20.6492 -20.6492 -1.000000e-15 -2046.3202 -3918.6404)">
		<stop  offset="0" style="stop-color:#F69D4A"/>
		<stop  offset="0.749" style="stop-color:#FDB062"/>
		<stop  offset="1" style="stop-color:#FFB76B"/>
		<stop  offset="1" style="stop-color:#FFB76B"/>
	</linearGradient>
	<path style="fill:url(#SVGID_7_);" d="M23,30h-3l0.422,2.25l0,0l0.021,0.021l-0.014,0.014l0.893,4.764l1.95-1.95l5.171,5.172
		L24.814,43.9l-2.718-2.718l0.444,2.37C22.807,44.972,24.046,46,25.49,46h2.882l2.9-2.9l2.9,2.9H38h0.51
		c1.444,0,2.683-1.028,2.949-2.447l0,0l0.781-4.164L37.729,43.9l-1.908-1.908C34.8,41.901,34,41.044,34,40v-5
		c0-0.091-0.006-0.18-0.018-0.268l-2.711,2.711L29.928,36.1C29.659,37.191,28.674,38,27.5,38h0c-1.381,0-2.5-1.119-2.5-2.5V32
		C25,30.896,24.105,30,23,30 M44,30h-4c-0.001,0-0.001,0-0.002,0c-0.431,0.001-0.83,0.137-1.156,0.369
		c-0.001,0.001-0.002,0.002-0.003,0.002c0,0-0.001,0.001-0.001,0.001c-0.499,0.357-0.827,0.938-0.837,1.595c0,0.002,0,0.004,0,0.007
		c0,0.009,0,0.017,0,0.026v4.371l1.271-1.271l3.177,3.177l0.893-4.764L42.1,32.271l1.814-1.814L44,30"/>
	
		<linearGradient id="SVGID_8_" gradientUnits="userSpaceOnUse" x1="-192" y1="-100.384" x2="-191" y2="-100.384" gradientTransform="matrix(1.000000e-15 -21.8977 -21.8977 -1.000000e-15 -2165.2983 -4141.3613)">
		<stop  offset="0" style="stop-color:#F69D41"/>
		<stop  offset="0.7461" style="stop-color:#FDB05F"/>
		<stop  offset="1" style="stop-color:#FFB76B"/>
		<stop  offset="1" style="stop-color:#FFB76B"/>
	</linearGradient>
	<path style="fill:url(#SVGID_8_);" d="M36.765,53H32c-1.104,0-2,0.896-2,2c0,1.104,0.896,2,2,2c0.552,0,1,0.447,1,1
		c0,0.553-0.448,1-1,1h-1c-1.104,0-2,0.895-2,2c0,0.351,0.098,0.677,0.258,0.964c0.131,0.149,0.276,0.285,0.433,0.405l0.105,0.075
		c0.124,0.087,0.253,0.164,0.389,0.232l0.154,0.072c0.133,0.058,0.27,0.103,0.412,0.14l0.164,0.045
		C31.11,62.974,31.311,63,31.517,63h0.966l0,0c0.003,0,0.005,0,0.008,0c0,0,0.002,0,0.002,0c0.002,0,0.004,0,0.005,0
		c0.001,0,0.002,0,0.002,0c0.005,0,0.01,0,0.015,0c0.001,0,0.002,0,0.002,0c0.002,0,0.004,0,0.006,0c0.001,0,0.002,0,0.002,0
		c0.003,0,0.006,0,0.008,0c0,0,0.001,0,0.001,0c0.002,0,0.005,0,0.007,0c0.001,0,0.002,0,0.003,0c0.002,0,0.003,0,0.005,0
		c0.001,0,0.002,0,0.003,0c0.002,0,0.004,0,0.005,0c0.001,0,0.003,0,0.004,0c0.002,0,0.003,0,0.005,0c0.001,0,0.002,0,0.004,0
		c0.001,0,0.003,0,0.004,0c0.001,0,0.002,0,0.004,0c0.001,0,0.003,0,0.004,0c0.002,0,0.004,0,0.006,0c0.001,0,0.002,0,0.003,0
		c0.001,0,0.003,0,0.004,0c0.001,0,0.002,0,0.003,0c0.002,0,0.003,0,0.005,0l0.002,0c0.006,0,0.011,0,0.017-0.001
		c0,0,0.001,0,0.001,0c0.008,0,0.016-0.001,0.024-0.001l0,0c1.024-0.056,1.927-0.629,2.425-1.482
		c0.094-0.161,0.171-0.334,0.234-0.514h0.004c0.054-0.154,0.096-0.314,0.126-0.479l0.926-5.248L36.41,55l0.351-1.98L36.765,53"/>
	
		<linearGradient id="SVGID_9_" gradientUnits="userSpaceOnUse" x1="-192" y1="-99.7832" x2="-191" y2="-99.7832" gradientTransform="matrix(2.000000e-15 -25.3753 -25.3753 -2.000000e-15 -2498.0281 -4817.6187)">
		<stop  offset="0" style="stop-color:#F69D41"/>
		<stop  offset="0.4904" style="stop-color:#FBA954"/>
		<stop  offset="1" style="stop-color:#FFB76B"/>
	</linearGradient>
	<path style="fill:url(#SVGID_9_);" d="M38,46h-3.829H32l0,0c-1.104,0-2,0.895-2,2c0,1.105,0.896,2,2,2h5.29L38,46"/>
	
		<linearGradient id="SVGID_10_" gradientUnits="userSpaceOnUse" x1="-192" y1="-98.3189" x2="-191" y2="-98.3189" gradientTransform="matrix(2.000000e-15 -40.7521 -40.7521 -2.000000e-15 -3976.2029 -7781.0723)">
		<stop  offset="0" style="stop-color:#FF724E"/>
		<stop  offset="0.2139" style="stop-color:#FE7366"/>
		<stop  offset="0.5241" style="stop-color:#FC7383"/>
		<stop  offset="0.7933" style="stop-color:#FB7495"/>
		<stop  offset="0.9892" style="stop-color:#FB749B"/>
		<stop  offset="1" style="stop-color:#FB749B"/>
	</linearGradient>
	<path style="fill:url(#SVGID_10_);" d="M23,30c1.104,0,2,0.896,2,2v3.5c0,1.381,1.119,2.5,2.5,2.5c1.381,0,2.5-8,2.5-8l13-6.406
		c1.239-0.374,2-0.6,2-0.594c0.002-0.029,0.203-0.378,0.214-0.408c0.749-2.138,1.008-4.505,0.579-6.988
		c-0.285-1.65-0.866-3.203-1.682-4.604H44.1c-2.114-3.624-5.802-6.232-10.056-6.854c-0.003,0-0.005-0.001-0.008-0.001
		c-0.002,0-0.004-0.001-0.007-0.001c-0.227-0.033-0.456-0.06-0.686-0.082l-0.001,0c-0.006-0.001-0.012-0.001-0.018-0.002
		c-0.431-0.04-0.859-0.059-1.281-0.059 M32.044,4.002c-1.022,0-2.018,0.112-2.979,0.317h-0.001c-0.018,0.004-0.018,0.004,0.001,0
		C21,9,19,14,18,18.025c0.003,1.602,0.285,3.135,0.786,4.566C18.856,22.792,18.713,23,18.5,23c-1.763,0-3.222,1.304-3.465,3h0.015
		C15.027,26.165,15,26.329,15,26.5c0,1.933,1.567,3.5,3.5,3.5h1.316h0.013H23"/>
	
		<linearGradient id="SVGID_11_" gradientUnits="userSpaceOnUse" x1="-192" y1="-98.2207" x2="-191" y2="-98.2207" gradientTransform="matrix(2.000000e-15 -40.7521 -40.7521 -2.000000e-15 -3976.2029 -7781.0723)">
		<stop  offset="0" style="stop-color:#FF805F"/>
		<stop  offset="0.1166" style="stop-color:#FE816B"/>
		<stop  offset="0.4787" style="stop-color:#FD828B"/>
		<stop  offset="0.7825" style="stop-color:#FB839F"/>
		<stop  offset="0.9892" style="stop-color:#FB83A6"/>
		<stop  offset="1" style="stop-color:#FB83A6"/>
	</linearGradient>
	<path style="fill:url(#SVGID_11_);" d="M29.065,4.319c-0.019,0.004-0.036,0.008-0.055,0.012c-0.3,0.066-0.594,0.148-0.886,0.232
		c-0.109,0.031-0.218,0.06-0.325,0.094c-0.291,0.092-0.576,0.194-0.858,0.303c-0.117,0.045-0.233,0.093-0.349,0.142
		c-0.277,0.116-0.55,0.237-0.817,0.37c-0.103,0.051-0.201,0.107-0.302,0.16c-0.117,0.062-0.235,0.121-0.352,0.183
		c-4.18,2.361-7.025,6.804-7.118,11.926c0,0.002,0,0.003,0,0.005c0,0.005,0,0.01,0,0.015c0,0.002,0,0.004,0,0.006
		c0,0.005,0,0.009,0,0.014c0,0.002,0,0.005,0,0.008c0,0.004,0,0.009,0,0.013c0,0.003,0,0.006,0,0.009c0,0.004,0,0.008,0,0.012
		c0,0.003,0,0.007,0,0.01c0,0.006,0,0.012,0,0.018c0,0.004,0,0.009,0,0.014c0,0.003,0,0.005,0,0.009c0,0.004,0,0.008,0,0.013
		c0,0.003,0,0.006,0,0.009c0,0.004,0,0.009,0,0.013c0,0.003,0,0.006,0,0.009c0,0.004,0,0.009,0,0.013c0,0.003,0,0.006,0,0.009
		c0,0.004,0,0.009,0,0.013c0,0.002,0,0.006,0,0.008c0,0.004,0,0.01,0,0.015c0,0.002,0,0.004,0,0.007c0,0.007,0,0.014,0,0.021l0,0
		c0,0.005,0,0.01,0,0.015c0,0.003,0,0.006,0,0.008c0,0.001,0,0.001,0,0.001c0.002,1.025,0.13,2.016,0.344,2.975H27.5
		c0.829,0,1.5-0.671,1.5-1.5c0-0.829-0.671-1.5-1.5-1.5h-1c-0.829,0-1.5-0.671-1.5-1.5c0-0.829,0.671-1.5,1.5-1.5h6.393
		c0.996,0,1.919-0.681,2.08-1.664C35.176,12.083,34.215,11,33,11h-7.5c-0.829,0-1.5-0.671-1.5-1.5C24,8.671,24.671,8,25.5,8h2.393
		c0.996,0,1.919-0.681,2.08-1.664C30.11,5.489,29.71,4.729,29.065,4.319"/>
	<linearGradient id="SVGID_12_" gradientUnits="userSpaceOnUse" x1="35" y1="41.9999" x2="35" y2="20.0624">
		<stop  offset="0.0072" style="stop-color:#FF6B48"/>
		<stop  offset="0.9892" style="stop-color:#FC6A74"/>
	</linearGradient>
	<path style="fill:url(#SVGID_12_);" d="M45.5,23c-0.213,0-0.356-0.208-0.286-0.409c0.289-0.831,0.501-1.698,0.632-2.591H40.5h-3h-1
		c-0.828,0-1.5,0.672-1.5,1.5s0.672,1.5,1.5,1.5h1c0.828,0,1.5,0.672,1.5,1.5S38.328,26,37.5,26H23.107
		c-0.996,0-1.92,0.681-2.08,1.664C20.824,28.917,21.785,30,23,30c1.105,0,2,0.895,2,2v3.5c0,1.381,1.119,2.5,2.5,2.5h0
		c1.381,0,2.501-1.12,2.5-2.501L30,35c-0.001-1.104,0.895-2,1.999-2H32c1.105,0,2,0.895,2,2v5c0,1.105,0.895,2,2,2s2-0.895,2-2v-8
		c0-1.104,0.895-2,1.999-2h1c0,0,0,0,0,0h4.5c1.933,0,3.5-1.567,3.5-3.5S47.433,23,45.5,23z"/>
</g>
<g id="Layer_2">
</g>
</svg>
