<?xml version="1.0" encoding="iso-8859-1"?>
<!-- Generator: Adobe Illustrator 21.0.2, SVG Export Plug-In . SVG Version: 6.00 Build 0)  -->
<svg version="1.1" xmlns="http://www.w3.org/2000/svg" xmlns:xlink="http://www.w3.org/1999/xlink" x="0px" y="0px"
	 viewBox="0 0 64 64" style="enable-background:new 0 0 64 64;" xml:space="preserve">
<g id="Layer_1">
	<radialGradient id="SVGID_1_" cx="32.375" cy="35.569" r="49.7797" gradientUnits="userSpaceOnUse">
		<stop  offset="0" style="stop-color:#AFEEFF"/>
		<stop  offset="0.1927" style="stop-color:#BBF1FF"/>
		<stop  offset="0.7025" style="stop-color:#D7F8FF"/>
		<stop  offset="1" style="stop-color:#E1FAFF"/>
	</radialGradient>
	<path style="fill:url(#SVGID_1_);" d="M60,44H45l-2.6-1h6.012c1.138,0,2.202-0.721,2.497-1.821C51.355,39.516,50.096,38,48.5,38
		c-0.828,0-1.5-0.672-1.5-1.5s0.672-1.5,1.5-1.5h2.912c1.139,0,2.202-0.721,2.497-1.821C54.355,31.516,53.096,29,51.5,29H51
		c-1.105,0-2-0.895-2-2c0-1.105,0.895-2,2-2h9c1.139,0,2.202-0.721,2.497-1.821C62.943,21.516,61.684,20,60.088,20H59
		c-1.105,0-2-0.895-2-2c0-1.105,0.895-2,2-2h2c1.848,0,3.319-1.693,2.94-3.605C63.657,10.972,62.32,10,60.869,10H50.5
		C49.672,10,49,9.328,49,8.5S49.672,7,50.5,7h5.912c1.139,0,2.202-0.721,2.497-1.821C59.355,3.516,58.096,2,56.5,2H10.588
		C9.449,2,8.386,2.721,8.091,3.821C7.645,5.484,8.904,7,10.5,7l0,0C11.881,7,13,8.119,13,9.5c0,1.381-1.119,2.5-2.5,2.5H9.588H7
		c-1.65,0-3,1.35-3,3c0,1.65,1.35,3,3,3h19c0.352,0,0.685-0.073,1-0.185V29h-7.412c-1.139,0-2.202,1.721-2.497,2.821
		c-0.219,0.817-0.024,1.595,0.418,2.179H3.5C2.119,34,1,35.119,1,36.5C1,37.881,2.119,39,3.5,39h1C5.881,39,7,40.119,7,41.5
		C7,42.881,5.881,44,4.5,44H4c-1.657,0-3,1.343-3,3s1.343,3,3,3h5.5c1.381,0,2.5,1.119,2.5,2.5c0,1.381-1.119,2.5-2.5,2.5H8
		c-1.657,0-3,1.343-3,3s1.343,3,3,3h48c1.657,0,3-1.343,3-3s-1.343-3-3-3h-0.5c-1.381,0-2.5-1.119-2.5-2.5
		c0-1.381,1.119-2.5,2.5-2.5H60c1.657,0,3-1.343,3-3S61.657,44,60,44z M27,37.077L21.6,35H27V37.077z"/>
	<linearGradient id="SVGID_2_" gradientUnits="userSpaceOnUse" x1="32" y1="56" x2="32" y2="6">
		<stop  offset="0" style="stop-color:#FEAA53"/>
		<stop  offset="0.6124" style="stop-color:#FFCD49"/>
		<stop  offset="1" style="stop-color:#FFDE44"/>
	</linearGradient>
	<path style="fill:url(#SVGID_2_);" d="M57,31c0,13.805-11.195,25-25,25S7,44.805,7,31S18.195,6,32,6S57,17.195,57,31z"/>
	<linearGradient id="SVGID_3_" gradientUnits="userSpaceOnUse" x1="50.5" y1="20" x2="50.5" y2="11">
		<stop  offset="0" style="stop-color:#FF634D"/>
		<stop  offset="0.2043" style="stop-color:#FE6464"/>
		<stop  offset="0.5209" style="stop-color:#FC6581"/>
		<stop  offset="0.7936" style="stop-color:#FA6694"/>
		<stop  offset="0.9892" style="stop-color:#FA669A"/>
		<stop  offset="1" style="stop-color:#FA669A"/>
	</linearGradient>
	<path style="fill:url(#SVGID_3_);" d="M55.948,13.439c-0.216-1.175-1.162-2.145-2.334-2.378c-1.048-0.208-2.022,0.131-2.695,0.781
		c-0.238,0.23-0.601,0.23-0.839,0c-0.673-0.65-1.647-0.988-2.695-0.781c-1.171,0.232-2.117,1.201-2.334,2.374
		c-0.202,1.093,0.197,2.092,0.911,2.756l-0.007,0.005l3.906,3.56c0.351,0.324,0.924,0.324,1.275,0l3.881-3.538l0.009-0.021
		C55.747,15.535,56.149,14.535,55.948,13.439z"/>
	<linearGradient id="SVGID_4_" gradientUnits="userSpaceOnUse" x1="39.5" y1="13" x2="39.5" y2="4">
		<stop  offset="0" style="stop-color:#FF634D"/>
		<stop  offset="0.2043" style="stop-color:#FE6464"/>
		<stop  offset="0.5209" style="stop-color:#FC6581"/>
		<stop  offset="0.7936" style="stop-color:#FA6694"/>
		<stop  offset="0.9892" style="stop-color:#FA669A"/>
		<stop  offset="1" style="stop-color:#FA669A"/>
	</linearGradient>
	<path style="fill:url(#SVGID_4_);" d="M44.948,6.439c-0.216-1.175-1.162-2.145-2.334-2.378c-1.048-0.208-2.022,0.131-2.695,0.781
		c-0.238,0.23-0.601,0.23-0.839,0c-0.673-0.65-1.647-0.988-2.695-0.781c-1.171,0.232-2.117,1.201-2.334,2.374
		c-0.202,1.093,0.197,2.092,0.911,2.756l-0.007,0.005l3.906,3.56c0.351,0.324,0.924,0.324,1.275,0l3.881-3.538l0.009-0.021
		C44.747,8.535,45.149,7.535,44.948,6.439z"/>
	<linearGradient id="SVGID_6_" gradientUnits="userSpaceOnUse" x1="32.5" y1="43.9167" x2="32.5" y2="38.2402">
		<stop  offset="0" style="stop-color:#FF634D"/>
		<stop  offset="0.2043" style="stop-color:#FE6464"/>
		<stop  offset="0.5209" style="stop-color:#FC6581"/>
		<stop  offset="0.7936" style="stop-color:#FA6694"/>
		<stop  offset="0.9892" style="stop-color:#FA669A"/>
		<stop  offset="1" style="stop-color:#FA669A"/>
	</linearGradient>
	<path style="fill:url(#SVGID_6_);" d="M35.987,38.684c-0.912-0.912-2.391-0.912-3.303,0c-0.07,0.07-0.125,0.149-0.184,0.225
		c-0.059-0.076-0.114-0.155-0.184-0.225c-0.912-0.912-2.391-0.912-3.303,0L26,43l1.2,2c1.117,1.861,3.128,3,5.299,3h0.002
		c2.171,0,4.182-1.139,5.299-3l1.2-2L35.987,38.684z"/>
	<linearGradient id="SVGID_7_" gradientUnits="userSpaceOnUse" x1="32.5" y1="43" x2="32.5" y2="46.9187">
		<stop  offset="0" style="stop-color:#FF5840"/>
		<stop  offset="0.0072" style="stop-color:#FF5840"/>
		<stop  offset="0.9892" style="stop-color:#FA528C"/>
		<stop  offset="1" style="stop-color:#FA528C"/>
	</linearGradient>
	<path style="fill:url(#SVGID_7_);" d="M37.8,45l1.2-2H26l1.2,2c1.117,1.861,3.128,3,5.299,3h0.002C34.672,48,36.683,46.861,37.8,45
		z"/>
	<path style="fill:none;stroke:#717171;stroke-width:3;stroke-linecap:round;stroke-miterlimit:10;" d="M47.341,30.5
		c-0.501-1.723-2.245-3-4.341-3s-3.84,1.277-4.341,3"/>
	<path style="fill:none;stroke:#717171;stroke-width:3;stroke-linecap:round;stroke-miterlimit:10;" d="M25.341,30.5
		c-0.501-1.723-2.245-3-4.341-3s-3.84,1.277-4.341,3"/>
</g>
<g id="Layer_2">
</g>
</svg>
