<?xml version="1.0" encoding="iso-8859-1"?>
<!-- Generator: Adobe Illustrator 21.0.2, SVG Export Plug-In . SVG Version: 6.00 Build 0)  -->
<svg version="1.1" xmlns="http://www.w3.org/2000/svg" xmlns:xlink="http://www.w3.org/1999/xlink" x="0px" y="0px"
	 viewBox="0 0 64 64" style="enable-background:new 0 0 64 64;" xml:space="preserve">
<g id="Layer_1">
	
		<radialGradient id="SVGID_1_" cx="-2.9272" cy="-191.9394" r="0.976" gradientTransform="matrix(33.0021 0 0 -33.0021 128 -6304.4106)" gradientUnits="userSpaceOnUse">
		<stop  offset="0" style="stop-color:#EFDCB1"/>
		<stop  offset="1.082549e-07" style="stop-color:#EFDCB1"/>
		<stop  offset="0.0922" style="stop-color:#F2E0B9"/>
		<stop  offset="0.415" style="stop-color:#F9ECCF"/>
		<stop  offset="0.7235" style="stop-color:#FDF4DC"/>
		<stop  offset="1" style="stop-color:#FFF6E1"/>
	</radialGradient>
	<path style="fill:url(#SVGID_1_);" d="M54.5,8H47h-6l8.576,8.576c0.618-0.938,1.676-1.561,2.88-1.576c0.001,0,0.002,0,0.003,0
		c0.004,0,0.007,0,0.01,0c0.001,0,0.003,0,0.004,0c0.003,0,0.007,0,0.01,0c0.001,0,0.002,0,0.004,0c0.005,0,0.009,0,0.013,0l0,0
		h1.802l0,0c1.884,0,3.574-1.402,3.691-3.278c0.001-0.011,0.001-0.022,0.002-0.033C57.998,11.625,58,11.563,58,11.5
		C58,9.567,56.433,8,54.5,8"/>
	
		<radialGradient id="SVGID_2_" cx="-2.8786" cy="-191.9394" r="1" gradientTransform="matrix(33.0021 0 0 -33.0021 128 -6304.4106)" gradientUnits="userSpaceOnUse">
		<stop  offset="0" style="stop-color:#EFDCB1"/>
		<stop  offset="1.082549e-07" style="stop-color:#EFDCB1"/>
		<stop  offset="0.0922" style="stop-color:#F2E0B9"/>
		<stop  offset="0.415" style="stop-color:#F9ECCF"/>
		<stop  offset="0.7235" style="stop-color:#FDF4DC"/>
		<stop  offset="1" style="stop-color:#FFF6E1"/>
	</radialGradient>
	<path style="fill:url(#SVGID_2_);" d="M14,12h-2.302c-1.895,0-3.594,1.419-3.693,3.311c-0.001,0.024-0.002,0.047-0.003,0.071
		C7.937,17.369,9.528,19,11.5,19H14V12"/>
	
		<radialGradient id="SVGID_3_" cx="-3.1155" cy="-191.9711" r="1.1716" gradientTransform="matrix(33.0021 0 0 -33.0021 128 -6304.4106)" gradientUnits="userSpaceOnUse">
		<stop  offset="0" style="stop-color:#EFDCB1"/>
		<stop  offset="1.082549e-07" style="stop-color:#EFDCB1"/>
		<stop  offset="0.0922" style="stop-color:#F2E0B9"/>
		<stop  offset="0.415" style="stop-color:#F9ECCF"/>
		<stop  offset="0.7235" style="stop-color:#FDF4DC"/>
		<stop  offset="1" style="stop-color:#FFF6E1"/>
	</radialGradient>
	<path style="fill:url(#SVGID_3_);" d="M50,52l4.83,0c1.57,0,3.083-1.271,3.165-2.839C58.086,47.431,56.71,46,55,46h-0.013l0,0
		c-0.006,0-0.011,0-0.017,0c-0.777,0-1.539-0.254-2.078-0.768c-0.17-0.162-0.318-0.35-0.438-0.564C51.166,42.35,52.809,40,55,40
		l4.302,0c1.896,0,3.595-1.42,3.693-3.313C63.1,34.669,61.495,33,59.5,33l0,0l-4.401,0c-0.982,0-1.893-0.663-2.066-1.63
		C53.011,31.244,53,31.119,53,30.996l0,0c0.002-1.06,0.829-1.927,1.873-1.992c1.515-0.095,2.906-1.098,3.101-2.604
		C57.991,26.264,58,26.13,58,25.997C57.998,24.342,56.656,23,55,23h-5V52z"/>
	
		<radialGradient id="SVGID_4_" cx="-2.8786" cy="-191.9697" r="1" gradientTransform="matrix(33.0021 0 0 -33.0021 128 -6304.4106)" gradientUnits="userSpaceOnUse">
		<stop  offset="0" style="stop-color:#EFDCB1"/>
		<stop  offset="1.082549e-07" style="stop-color:#EFDCB1"/>
		<stop  offset="0.0922" style="stop-color:#F2E0B9"/>
		<stop  offset="0.415" style="stop-color:#F9ECCF"/>
		<stop  offset="0.7235" style="stop-color:#FDF4DC"/>
		<stop  offset="1" style="stop-color:#FFF6E1"/>
	</radialGradient>
	<path style="fill:url(#SVGID_4_);" d="M14,27H9c-1.381,0-2.5,1.119-2.5,2.5C6.5,30.881,7.619,32,9,32h0.5
		c1.381,0,2.5,1.119,2.5,2.5l0,0l0,0l0,0l0,0c0,1.381-1.119,2.5-2.5,2.5H4.17c-1.625,0-3.081,1.217-3.166,2.839
		C1.002,39.893,1,39.947,1,40c0,1.656,1.343,3,3,3h4.893c0.996,0,1.919,0.681,2.08,1.664C10.991,44.777,11,44.888,11,44.997l0,0
		C11.001,46.103,10.106,47,9,47H8.17c-1.624,0-3.081,1.217-3.166,2.839C5.002,49.893,5,49.947,5,50c0,1.656,1.343,3,3,3h6V27"/>
	
		<linearGradient id="SVGID_6_" gradientUnits="userSpaceOnUse" x1="2.7424" y1="-192.0286" x2="3.7424" y2="-192.0286" gradientTransform="matrix(-35.0063 0 0 35.0063 130.0833 6751.7188)">
		<stop  offset="0" style="stop-color:#EFDCB1"/>
		<stop  offset="1.082549e-07" style="stop-color:#EFDCB1"/>
		<stop  offset="0.2638" style="stop-color:#F5E5C2"/>
		<stop  offset="0.7155" style="stop-color:#FCF1D9"/>
		<stop  offset="1" style="stop-color:#FFF6E1"/>
	</linearGradient>
	<path style="fill:url(#SVGID_6_);" d="M2.5,27C1.119,27,0,28.119,0,29.5C0,30.881,1.119,32,2.5,32S5,30.881,5,29.5
		C5,28.119,3.881,27,2.5,27"/>
	<linearGradient id="SVGID_7_" gradientUnits="userSpaceOnUse" x1="32" y1="3" x2="32" y2="61">
		<stop  offset="0" style="stop-color:#A4A4A4"/>
		<stop  offset="0.6187" style="stop-color:#808080"/>
		<stop  offset="1" style="stop-color:#6F6F6F"/>
		<stop  offset="1" style="stop-color:#6F6F6F"/>
	</linearGradient>
	<path style="fill:url(#SVGID_7_);" d="M45,61H19c-2.761,0-5-2.239-5-5V8c0-2.761,2.239-5,5-5h26c2.761,0,5,2.239,5,5v48
		C50,58.761,47.761,61,45,61z"/>
	<linearGradient id="SVGID_8_" gradientUnits="userSpaceOnUse" x1="32" y1="10" x2="32" y2="76.1292">
		<stop  offset="0" style="stop-color:#DFF9FF"/>
		<stop  offset="1.082549e-07" style="stop-color:#DFF9FF"/>
		<stop  offset="0.1728" style="stop-color:#D8F8FF"/>
		<stop  offset="0.4232" style="stop-color:#C5F4FF"/>
		<stop  offset="0.7196" style="stop-color:#A5EEFF"/>
		<stop  offset="1" style="stop-color:#81E7FF"/>
	</linearGradient>
	<path style="fill:url(#SVGID_8_);" d="M44,51H20c-1.657,0-3-1.343-3-3V13c0-1.657,1.343-3,3-3h24c1.657,0,3,1.343,3,3v35
		C47,49.657,45.657,51,44,51z"/>
	<path style="fill:#BCBCBC;" d="M37,8H27c-0.552,0-1-0.448-1-1v0c0-0.552,0.448-1,1-1h10c0.552,0,1,0.448,1,1v0
		C38,7.552,37.552,8,37,8z"/>
	<circle style="fill:#9E9E9E;" cx="32" cy="56" r="3"/>
	<linearGradient id="SVGID_9_" gradientUnits="userSpaceOnUse" x1="40" y1="50.9583" x2="40" y2="35.9583">
		<stop  offset="0" style="stop-color:#89E4FA"/>
		<stop  offset="0.4062" style="stop-color:#94E8FC"/>
		<stop  offset="1" style="stop-color:#ACF0FF"/>
	</linearGradient>
	<path style="fill:url(#SVGID_9_);" d="M37,38.5L37,38.5c0,1.381,1.119,2.5,2.5,2.5h0c1.381,0,2.5,1.119,2.5,2.5v0
		c0,1.381-1.119,2.5-2.5,2.5h-4c-1.381,0-2.5,1.119-2.5,2.5v0c0,1.381,1.119,2.5,2.5,2.5H44c1.657,0,3-1.343,3-3v-2v-5v-5h-7.5
		C38.119,36,37,37.119,37,38.5z"/>
	<g>
		<linearGradient id="SVGID_10_" gradientUnits="userSpaceOnUse" x1="37.5" y1="24" x2="37.5" y2="19">
			<stop  offset="0" style="stop-color:#ECF9FD"/>
			<stop  offset="0.8484" style="stop-color:#F2FDFF"/>
			<stop  offset="1" style="stop-color:#F4FEFF"/>
		</linearGradient>
		<path style="fill:url(#SVGID_10_);" d="M35,21.5L35,21.5c0,1.381,1.119,2.5,2.5,2.5h0c1.381,0,2.5-1.119,2.5-2.5v0
			c0-1.381-1.119-2.5-2.5-2.5h0C36.119,19,35,20.119,35,21.5z"/>
		<linearGradient id="SVGID_11_" gradientUnits="userSpaceOnUse" x1="27" y1="43" x2="27" y2="10">
			<stop  offset="0" style="stop-color:#ECF9FD"/>
			<stop  offset="0.8484" style="stop-color:#F2FDFF"/>
			<stop  offset="1" style="stop-color:#F4FEFF"/>
		</linearGradient>
		<path style="fill:url(#SVGID_11_);" d="M28.5,24h1c1.381,0,2.5-1.119,2.5-2.5v0c0-1.381-1.119-2.5-2.5-2.5H26
			c-1.105,0-2-0.895-2-2v0c0-1.105,0.895-2,2-2h8.5c1.381,0,2.5-1.119,2.5-2.5v0c0-1.381-1.119-2.5-2.5-2.5H20c-1.657,0-3,1.343-3,3
			v30h9.5c1.381,0,2.5-1.119,2.5-2.5v0c0-1.381-1.119-2.5-2.5-2.5H26c-1.105,0-2-0.895-2-2v0c0-1.105,0.895-2,2-2h5.5
			c1.381,0,2.5-1.119,2.5-2.5v0c0-1.381-1.119-2.5-2.5-2.5h-3c-1.381,0-2.5-1.119-2.5-2.5v0C26,25.119,27.119,24,28.5,24z"/>
	</g>
	<linearGradient id="SVGID_12_" gradientUnits="userSpaceOnUse" x1="32" y1="38" x2="32" y2="21">
		<stop  offset="0" style="stop-color:#FF634D"/>
		<stop  offset="0.2043" style="stop-color:#FE6464"/>
		<stop  offset="0.5209" style="stop-color:#FC6581"/>
		<stop  offset="0.7936" style="stop-color:#FA6694"/>
		<stop  offset="0.9892" style="stop-color:#FA669A"/>
		<stop  offset="1" style="stop-color:#FA669A"/>
	</linearGradient>
	<path style="fill:url(#SVGID_12_);" d="M41.881,25.125c-0.427-2.046-2.119-3.672-4.176-4.039c-2.112-0.377-4.029,0.508-5.161,2.02
		c-0.266,0.355-0.821,0.355-1.087,0c-1.132-1.512-3.049-2.397-5.161-2.02c-2.057,0.367-3.749,1.993-4.176,4.039
		c-0.403,1.93,0.25,3.726,1.486,4.921l-0.002,0.001l7.237,7.469c0.638,0.645,1.681,0.645,2.319,0l7.233-7.467l-0.001,0
		C41.631,28.853,42.284,27.057,41.881,25.125z"/>
	<g>
		
			<linearGradient id="SVGID_13_" gradientUnits="userSpaceOnUse" x1="0" y1="-186.0589" x2="1" y2="-186.0589" gradientTransform="matrix(1.000000e-15 -17 -17 -1.000000e-15 -3136 38)">
			<stop  offset="0" style="stop-color:#FF735F"/>
			<stop  offset="0.1515" style="stop-color:#FE746F"/>
			<stop  offset="0.4881" style="stop-color:#FC758C"/>
			<stop  offset="0.779" style="stop-color:#FB769E"/>
			<stop  offset="0.9892" style="stop-color:#FB76A4"/>
			<stop  offset="1" style="stop-color:#FB76A4"/>
		</linearGradient>
		<path style="fill:url(#SVGID_13_);" d="M27.278,21.001c-0.32,0-0.646,0.029-0.979,0.089c-2.06,0.36-3.75,1.99-4.18,4.04
			c-0.247,1.188-0.095,2.323,0.346,3.301c0.276,0.61,0.665,1.157,1.139,1.616l-0.001,0.001L27.433,34H29.5c1.38,0,2.5-1.12,2.5-2.5
			c0-0.69-0.28-1.32-0.73-1.77C30.82,29.28,30.19,29,29.5,29h-1c-1.38,0-2.5-1.12-2.5-2.5c0-0.69,0.28-1.32,0.73-1.77
			C27.18,24.28,27.81,24,28.5,24h1c0.779,0,1.478-0.359,1.938-0.917c-0.901-1.189-2.289-1.984-3.873-2.074
			C27.47,21.004,27.374,21.001,27.278,21.001"/>
		
			<linearGradient id="SVGID_14_" gradientUnits="userSpaceOnUse" x1="0" y1="-186.6744" x2="1" y2="-186.6744" gradientTransform="matrix(1.000000e-15 -17 -17 -1.000000e-15 -3136 38)">
			<stop  offset="0" style="stop-color:#FF735F"/>
			<stop  offset="0.1515" style="stop-color:#FE746F"/>
			<stop  offset="0.4881" style="stop-color:#FC758C"/>
			<stop  offset="0.779" style="stop-color:#FB769E"/>
			<stop  offset="0.9892" style="stop-color:#FB76A4"/>
			<stop  offset="1" style="stop-color:#FB76A4"/>
		</linearGradient>
		<path style="fill:url(#SVGID_14_);" d="M36.72,21.002c-0.601,0-1.175,0.102-1.71,0.298L35,21.5c0,1.38,1.12,2.5,2.5,2.5
			c0.69,0,1.32-0.28,1.77-0.73c0.32-0.319,0.55-0.73,0.66-1.189c-0.65-0.5-1.41-0.85-2.23-0.99
			C37.367,21.031,37.04,21.002,36.72,21.002"/>
	</g>
</g>
<g id="Layer_2">
</g>
</svg>
