<?xml version="1.0" encoding="iso-8859-1"?>
<!-- Generator: Adobe Illustrator 21.0.2, SVG Export Plug-In . SVG Version: 6.00 Build 0)  -->
<svg version="1.1" xmlns="http://www.w3.org/2000/svg" xmlns:xlink="http://www.w3.org/1999/xlink" x="0px" y="0px"
	 viewBox="0 0 64 64" style="enable-background:new 0 0 64 64;" xml:space="preserve">
<g id="Layer_1">
	<g>
		<radialGradient id="SVGID_1_" cx="30.125" cy="29.625" r="64.6221" gradientUnits="userSpaceOnUse">
			<stop  offset="0" style="stop-color:#AFEEFF"/>
			<stop  offset="0.1927" style="stop-color:#BBF1FF"/>
			<stop  offset="0.7025" style="stop-color:#D7F8FF"/>
			<stop  offset="1" style="stop-color:#E1FAFF"/>
		</radialGradient>
		<circle style="fill:url(#SVGID_1_);" cx="23.5" cy="2.5" r="2.5"/>
		<radialGradient id="SVGID_2_" cx="30.125" cy="29.625" r="64.6221" gradientUnits="userSpaceOnUse">
			<stop  offset="0" style="stop-color:#AFEEFF"/>
			<stop  offset="0.1927" style="stop-color:#BBF1FF"/>
			<stop  offset="0.7025" style="stop-color:#D7F8FF"/>
			<stop  offset="1" style="stop-color:#E1FAFF"/>
		</radialGradient>
		<path style="fill:url(#SVGID_2_);" d="M62.94,10.395C62.657,8.972,61.32,8,59.869,8H54.5C53.672,8,53,7.328,53,6.5
			S53.672,5,54.5,5h1.912c1.139,0,2.202-0.721,2.497-1.821C59.355,1.516,58.096,0,56.5,0H30.588c-1.138,0-2.202,0.721-2.497,1.821
			C27.645,3.484,28.904,5,30.5,5h2C33.881,5,35,6.119,35,7.5c0,1.381-1.119,2.5-2.5,2.5h-9.912c-1.138,0-2.202,0.721-2.497,1.821
			C19.645,13.484,20.904,15,22.5,15h3c0.828,0,1.5,0.672,1.5,1.5S26.328,18,25.5,18h-1.912c-1.139,0-2.202,0.721-2.497,1.821
			C20.645,21.484,21.904,23,23.5,23h-6.91c-1.14,0-2.2,0.72-2.5,1.82c-0.221,0.816-0.026,1.596,0.416,2.18h-1.919
			c-1.139,0-2.202,0.721-2.497,1.821C9.645,30.484,10.904,32,12.5,32h7.988c-0.457,0.604-1.174,1-1.988,1H8.59
			c-1.14,0-2.2,0.72-2.5,1.82C5.64,36.48,6.9,38,8.5,38h3c0.83,0,1.5,0.67,1.5,1.5c0,0.83-0.67,1.5-1.5,1.5H9.59
			c-1.14,0-2.2,0.72-2.5,1.82C6.64,44.48,7.9,46,9.5,46H14c1.1,0,2,0.9,2,2c0,1.1-0.9,2-2,2H4.59c-1.14,0-2.2,0.72-2.5,1.82
			C1.64,53.48,2.9,55,4.5,55h6c0.83,0,1.5,0.67,1.5,1.5c0,0.83-0.67,1.5-1.5,1.5C9.12,58,8,59.12,8,60.5S9.12,63,10.5,63h28
			c0.69,0,1.32-0.28,1.77-0.73C40.72,61.82,41,61.19,41,60.5c0-1.38-1.12-2.5-2.5-2.5h-7c-0.83,0-1.5-0.67-1.5-1.5
			c0-0.83,0.67-1.5,1.5-1.5h2.91c1.14,0,2.2-0.72,2.5-1.82C37.36,51.52,36.1,50,34.5,50H34c-1.1,0-2-0.9-2-2c0-1.1,0.9-2,2-2h6.41
			c1.14,0,2.2-0.72,2.5-1.82C43.36,42.52,42.1,41,40.5,41H40c-0.735,0-1.373-0.406-1.721-1h9.133c1.138,0,2.202-0.721,2.497-1.821
			C50.355,36.516,49.096,35,47.5,35c-0.227,0-0.44-0.054-0.633-0.144c0.135-0.452,0.175-0.944,0.073-1.456
			c-0.074-0.376-0.224-0.718-0.427-1.021C46.777,32.146,47.12,32,47.5,32h2.912c1.139,0,2.202-0.721,2.497-1.821
			C53.355,28.516,52.096,27,50.5,27H50c-1.105,0-2-0.895-2-2c0-1.105,0.895-2,2-2h6.412c1.139,0,2.202-0.721,2.497-1.821
			C59.355,19.516,58.096,18,56.5,18H56c-1.105,0-2-0.895-2-2c0-1.105,0.895-2,2-2h4C61.848,14,63.319,12.307,62.94,10.395z"/>
		<radialGradient id="SVGID_3_" cx="30.125" cy="29.625" r="64.6221" gradientUnits="userSpaceOnUse">
			<stop  offset="0" style="stop-color:#AFEEFF"/>
			<stop  offset="0.1927" style="stop-color:#BBF1FF"/>
			<stop  offset="0.7025" style="stop-color:#D7F8FF"/>
			<stop  offset="1" style="stop-color:#E1FAFF"/>
		</radialGradient>
		<circle style="fill:url(#SVGID_3_);" cx="57.5" cy="29.5" r="2.5"/>
	</g>
	<radialGradient id="SVGID_4_" cx="11.2527" cy="49.375" r="41.1665" gradientUnits="userSpaceOnUse">
		<stop  offset="0" style="stop-color:#AFEEFF"/>
		<stop  offset="0.1927" style="stop-color:#BBF1FF"/>
		<stop  offset="0.7025" style="stop-color:#D7F8FF"/>
		<stop  offset="1" style="stop-color:#E1FAFF"/>
	</radialGradient>
	<path style="fill:url(#SVGID_4_);" d="M45.5,58c-1.38,0-2.5,1.12-2.5,2.5s1.12,2.5,2.5,2.5s2.5-1.12,2.5-2.5S46.88,58,45.5,58z
		 M9.5,23C8.12,23,7,24.12,7,25.5S8.12,28,9.5,28s2.5-1.12,2.5-2.5S10.88,23,9.5,23z"/>
	<linearGradient id="SVGID_6_" gradientUnits="userSpaceOnUse" x1="4" y1="32" x2="60" y2="32">
		<stop  offset="0" style="stop-color:#FFAD6B"/>
		<stop  offset="0.4216" style="stop-color:#FF8B67"/>
		<stop  offset="0.6559" style="stop-color:#FF8B67"/>
		<stop  offset="0.9474" style="stop-color:#FFA76A"/>
		<stop  offset="1" style="stop-color:#FFAD6B"/>
		<stop  offset="1" style="stop-color:#FFAD6B"/>
	</linearGradient>
	<path style="fill:url(#SVGID_6_);" d="M55,52H9c-2.761,0-5-2.239-5-5V17c0-2.761,2.239-5,5-5h46c2.761,0,5,2.239,5,5v30
		C60,49.761,57.761,52,55,52z"/>
	<linearGradient id="SVGID_7_" gradientUnits="userSpaceOnUse" x1="9.5" y1="49.2286" x2="9.5" y2="26">
		<stop  offset="0" style="stop-color:#F9AF70"/>
		<stop  offset="1" style="stop-color:#FFB37B"/>
	</linearGradient>
	<path style="fill:url(#SVGID_7_);" d="M5.023,49H12.5c1.381,0,2.5-1.119,2.5-2.5c0-1.381-1.119-2.5-2.5-2.5H9c-1.105,0-2-0.895-2-2
		c0-1.105,0.895-2,2-2h0.5c1.381,0,2.5-1.119,2.5-2.5c0-1.381-1.119-2.5-2.5-2.5H9c-1.105,0-2-0.895-2-2c0-1.105,0.895-2,2-2h3.5
		c1.381,0,2.5-1.119,2.5-2.5c0-1.381-1.119-2.5-2.5-2.5H4v21c0,0.805,0.208,1.555,0.546,2.229C4.683,48.918,4.843,48.762,5.023,49z"
		/>
	<g>
		
			<linearGradient id="SVGID_8_" gradientUnits="userSpaceOnUse" x1="-479.9259" y1="-288" x2="-478.9259" y2="-288" gradientTransform="matrix(2.000000e-15 -27 -27 -2.000000e-15 -7744 -12906)">
			<stop  offset="0" style="stop-color:#FF9757"/>
			<stop  offset="1" style="stop-color:#FFB65B"/>
			<stop  offset="1" style="stop-color:#FFB65B"/>
		</linearGradient>
		<path style="fill:url(#SVGID_8_);" d="M32,25L4.085,47.84C4.486,50.199,6.526,52,9,52h46c2.474,0,4.514-1.801,4.915-4.16L32,25"/>
	</g>
	<linearGradient id="SVGID_9_" gradientUnits="userSpaceOnUse" x1="41.5" y1="43" x2="41.5" y2="28.9307">
		<stop  offset="1.082549e-07" style="stop-color:#FF8B67"/>
		<stop  offset="0.847" style="stop-color:#FFA76A"/>
		<stop  offset="1" style="stop-color:#FFAD6B"/>
		<stop  offset="1" style="stop-color:#FFAD6B"/>
	</linearGradient>
	<path style="fill:url(#SVGID_9_);" d="M41.5,43L41.5,43c-1.381,0-2.5-1.119-2.5-2.5v0c0-1.381,1.119-2.5,2.5-2.5h0
		c1.381,0,2.5,1.119,2.5,2.5v0C44,41.881,42.881,43,41.5,43z"/>
	<linearGradient id="SVGID_10_" gradientUnits="userSpaceOnUse" x1="48" y1="47.8333" x2="48" y2="25.1665">
		<stop  offset="1.082549e-07" style="stop-color:#FF8B67"/>
		<stop  offset="0.847" style="stop-color:#FFA76A"/>
		<stop  offset="1" style="stop-color:#FFAD6B"/>
		<stop  offset="1" style="stop-color:#FFAD6B"/>
	</linearGradient>
	<path style="fill:url(#SVGID_10_);" d="M60,47v-9H48.5c-1.381,0-2.5,1.119-2.5,2.5c0,1.381,1.119,2.5,2.5,2.5H49
		c1.105,0,2,0.895,2,2c0,1.105-0.895,2-2,2H38.5c-1.381,0-2.5,1.119-2.5,2.5c0,1.381,1.119,2.5,2.5,2.5H55
		C57.761,52,60,49.761,60,47z"/>
	<linearGradient id="SVGID_11_" gradientUnits="userSpaceOnUse" x1="32" y1="39" x2="32" y2="12">
		<stop  offset="0" style="stop-color:#F29265"/>
		<stop  offset="0.6398" style="stop-color:#FBB687"/>
		<stop  offset="1" style="stop-color:#FFC595"/>
	</linearGradient>
	<path style="fill:url(#SVGID_11_);" d="M4.085,16.16L32,39l27.915-22.84C59.514,13.801,57.474,12,55,12H9
		C6.526,12,4.486,13.801,4.085,16.16z"/>
	<linearGradient id="SVGID_12_" gradientUnits="userSpaceOnUse" x1="32" y1="41" x2="32" y2="24">
		<stop  offset="0" style="stop-color:#FF5840"/>
		<stop  offset="0.0072" style="stop-color:#FF5840"/>
		<stop  offset="0.9892" style="stop-color:#FA528C"/>
		<stop  offset="1" style="stop-color:#FA528C"/>
	</linearGradient>
	<path style="fill:url(#SVGID_12_);" d="M41.881,28.125c-0.427-2.046-2.119-3.672-4.176-4.039c-2.112-0.377-4.029,0.508-5.161,2.02
		c-0.266,0.355-0.821,0.355-1.087,0c-1.132-1.512-3.049-2.397-5.161-2.02c-2.057,0.367-3.749,1.993-4.176,4.039
		c-0.403,1.93,0.25,3.726,1.486,4.921l-0.002,0.001l7.237,7.469c0.638,0.645,1.681,0.645,2.319,0l7.233-7.467l-0.001,0
		C41.631,31.853,42.284,30.057,41.881,28.125z"/>
</g>
<g id="Layer_2">
</g>
</svg>
