<?xml version="1.0" encoding="iso-8859-1"?>
<!-- Generator: Adobe Illustrator 21.0.2, SVG Export Plug-In . SVG Version: 6.00 Build 0)  -->
<svg version="1.1" xmlns="http://www.w3.org/2000/svg" xmlns:xlink="http://www.w3.org/1999/xlink" x="0px" y="0px"
	 viewBox="0 0 64 64" style="enable-background:new 0 0 64 64;" xml:space="preserve">
<g id="Layer_1">
	<radialGradient id="SVGID_1_" cx="21.875" cy="29.375" r="46.5042" gradientUnits="userSpaceOnUse">
		<stop  offset="0" style="stop-color:#AFEEFF"/>
		<stop  offset="0.1927" style="stop-color:#BBF1FF"/>
		<stop  offset="0.7025" style="stop-color:#D7F8FF"/>
		<stop  offset="1" style="stop-color:#E1FAFF"/>
	</radialGradient>
	<path style="fill:url(#SVGID_1_);" d="M28,5.5C28,4.119,29.119,3,30.5,3S33,4.119,33,5.5C33,6.881,31.881,8,30.5,8S28,6.881,28,5.5
		z M58.5,30c-1.381,0-2.5,1.119-2.5,2.5c0,1.381,1.119,2.5,2.5,2.5s2.5-1.119,2.5-2.5C61,31.119,59.881,30,58.5,30z M63.94,13.395
		C63.657,11.972,62.32,11,60.869,11H55.5c-0.828,0-1.5-0.672-1.5-1.5S54.672,8,55.5,8h1.912c1.139,0,2.202-0.721,2.497-1.821
		C60.355,4.516,59.096,3,57.5,3H37.588c-1.138,0-2.202,0.721-2.497,1.821C34.645,6.484,35.904,8,37.5,8h2c1.381,0,2.5,1.119,2.5,2.5
		c0,1.381-1.119,2.5-2.5,2.5h-9.912c-1.138,0-2.202,0.721-2.497,1.821C26.645,16.484,27.904,18,29.5,18h3c0.828,0,1.5,0.672,1.5,1.5
		S33.328,21,32.5,21h-1.912c-1.139,0-2.202,0.721-2.497,1.821C27.645,24.484,28.904,26,30.5,26H35c1.105,0,2,0.895,2,2
		c0,1.105-0.895,2-2,2H19.588c-1.139,0-2.202,0.721-2.497,1.821C16.645,33.484,17.904,35,19.5,35h18c0.828,0,1.5,0.672,1.5,1.5
		S38.328,38,37.5,38c-1.375,0-2.5,1.125-2.5,2.5s1.125,2.5,2.5,2.5h2h8.912c1.138,0,2.202-0.721,2.497-1.821
		C51.355,39.516,50.096,38,48.5,38c-0.828,0-1.5-0.672-1.5-1.5s0.672-1.5,1.5-1.5h2.912c1.139,0,2.202-0.721,2.497-1.821
		C54.355,31.516,53.096,30,51.5,30H51c-1.105,0-2-0.895-2-2c0-1.105,0.895-2,2-2h6.412c1.139,0,2.202-0.721,2.497-1.821
		C60.355,22.516,59.096,21,57.5,21H57c-1.105,0-2-0.895-2-2c0-1.105,0.895-2,2-2h4C62.848,17,64.319,15.307,63.94,13.395z"/>
	<radialGradient id="SVGID_2_" cx="18.1875" cy="34.5" r="18.2813" gradientUnits="userSpaceOnUse">
		<stop  offset="0" style="stop-color:#E9CE8E"/>
		<stop  offset="1.082549e-07" style="stop-color:#E9CE8E"/>
		<stop  offset="0.2407" style="stop-color:#F1DCA9"/>
		<stop  offset="0.5213" style="stop-color:#F9E8C0"/>
		<stop  offset="0.7816" style="stop-color:#FDEFCF"/>
		<stop  offset="1" style="stop-color:#FFF2D4"/>
	</radialGradient>
	<path style="fill:url(#SVGID_2_);" d="M33.5,53H5.072c-0.911,0-1.762,0.577-1.999,1.456C2.715,55.786,3.723,57,5,57h1.5
		C7.328,57,8,57.672,8,58.5S7.328,60,6.5,60H2.072c-0.911,0-1.762,0.577-1.999,1.456C-0.285,62.786,0.723,64,2,64h29
		c0.825,0,1.5-0.675,1.5-1.5S31.825,61,31,61h-1.5c-0.825,0-1.5-0.675-1.5-1.5s0.675-1.5,1.5-1.5h4c1.381,0,2.5-1.119,2.5-2.5
		C36,54.119,34.881,53,33.5,53z"/>
	<linearGradient id="SVGID_3_" gradientUnits="userSpaceOnUse" x1="50.0108" y1="22.9856" x2="50.0108" y2="5.9856">
		<stop  offset="0" style="stop-color:#FF5840"/>
		<stop  offset="0.0072" style="stop-color:#FF5840"/>
		<stop  offset="0.9892" style="stop-color:#FA528C"/>
		<stop  offset="1" style="stop-color:#FA528C"/>
	</linearGradient>
	<path style="fill:url(#SVGID_3_);" d="M59.892,10.111c-0.427-2.046-2.119-3.672-4.176-4.039c-2.112-0.377-4.029,0.508-5.161,2.02
		c-0.266,0.355-0.821,0.355-1.087,0c-1.132-1.512-3.049-2.397-5.161-2.02c-2.057,0.367-3.749,1.993-4.176,4.039
		c-0.403,1.93,0.25,3.726,1.486,4.921l-0.002,0.001l7.237,7.469c0.638,0.645,1.681,0.645,2.319,0l7.233-7.467l-0.001,0
		C59.641,13.839,60.295,12.042,59.892,10.111z"/>
	<linearGradient id="SVGID_4_" gradientUnits="userSpaceOnUse" x1="38.5" y1="30" x2="38.5" y2="21">
		<stop  offset="0" style="stop-color:#FF634D"/>
		<stop  offset="0.2043" style="stop-color:#FE6464"/>
		<stop  offset="0.5209" style="stop-color:#FC6581"/>
		<stop  offset="0.7936" style="stop-color:#FA6694"/>
		<stop  offset="0.9892" style="stop-color:#FA669A"/>
		<stop  offset="1" style="stop-color:#FA669A"/>
	</linearGradient>
	<path style="fill:url(#SVGID_4_);" d="M43.948,23.439c-0.216-1.175-1.162-2.145-2.334-2.378c-1.048-0.208-2.022,0.131-2.695,0.781
		c-0.238,0.23-0.601,0.23-0.839,0c-0.673-0.65-1.647-0.988-2.695-0.781c-1.171,0.232-2.117,1.201-2.334,2.374
		c-0.202,1.093,0.197,2.092,0.911,2.756l-0.007,0.005l3.906,3.56c0.351,0.324,0.924,0.324,1.275,0l3.881-3.538l0.009-0.021
		C43.747,25.535,44.149,24.535,43.948,23.439z"/>
	<g>
		<linearGradient id="SVGID_6_" gradientUnits="userSpaceOnUse" x1="27" y1="39" x2="27" y2="25">
			<stop  offset="0" style="stop-color:#FFC662"/>
			<stop  offset="0.0036" style="stop-color:#FFC662"/>
			<stop  offset="0.6085" style="stop-color:#FFC582"/>
			<stop  offset="1" style="stop-color:#FFC491"/>
			<stop  offset="1" style="stop-color:#FFC491"/>
		</linearGradient>
		<path style="fill:url(#SVGID_6_);" d="M31.5,39c-0.64,0-1.28-0.244-1.768-0.732l-9-9c-0.977-0.976-0.977-2.559,0-3.535
			c0.976-0.977,2.56-0.977,3.535,0l9,9c0.977,0.976,0.977,2.559,0,3.535C32.78,38.756,32.14,39,31.5,39z"/>
	</g>
	<g>
		<linearGradient id="SVGID_7_" gradientUnits="userSpaceOnUse" x1="9" y1="39" x2="9" y2="25">
			<stop  offset="0" style="stop-color:#FFC662"/>
			<stop  offset="0.0036" style="stop-color:#FFC662"/>
			<stop  offset="0.6085" style="stop-color:#FFC582"/>
			<stop  offset="1" style="stop-color:#FFC491"/>
			<stop  offset="1" style="stop-color:#FFC491"/>
		</linearGradient>
		<path style="fill:url(#SVGID_7_);" d="M4.5,39c0.64,0,1.28-0.244,1.768-0.732l9-9c0.977-0.976,0.977-2.559,0-3.535
			c-0.976-0.977-2.56-0.977-3.535,0l-9,9c-0.977,0.976-0.977,2.559,0,3.535C3.22,38.756,3.86,39,4.5,39z"/>
	</g>
	<linearGradient id="SVGID_8_" gradientUnits="userSpaceOnUse" x1="18" y1="20" x2="18" y2="6">
		<stop  offset="0" style="stop-color:#FFC662"/>
		<stop  offset="0.0036" style="stop-color:#FFC662"/>
		<stop  offset="0.6085" style="stop-color:#FFC582"/>
		<stop  offset="1" style="stop-color:#FFC491"/>
		<stop  offset="1" style="stop-color:#FFC491"/>
	</linearGradient>
	<circle style="fill:url(#SVGID_8_);" cx="18" cy="13" r="7"/>
	<linearGradient id="SVGID_9_" gradientUnits="userSpaceOnUse" x1="18" y1="17.6571" x2="18" y2="47.0574">
		<stop  offset="0" style="stop-color:#6AF1FB"/>
		<stop  offset="0.2854" style="stop-color:#58E0F4"/>
		<stop  offset="0.8582" style="stop-color:#28B3E2"/>
		<stop  offset="1" style="stop-color:#1BA7DD"/>
		<stop  offset="1" style="stop-color:#1BA7DD"/>
	</linearGradient>
	<path style="fill:url(#SVGID_9_);" d="M17.059,22.062C13.536,22.529,11,25.709,11,29.263l0,9.237V43l0,14.412
		c0,1.139,0.721,2.202,1.821,2.497C14.484,60.355,16,59.096,16,57.5V45c0-1.105,0.895-2,2-2h0c1.105,0,2,0.895,2,2l0,12.412
		c0,1.139,0.721,2.202,1.821,2.497C23.484,60.355,25,59.096,25,57.5V43v-4.5V29C25,24.84,21.323,21.498,17.059,22.062z"/>
	<linearGradient id="SVGID_10_" gradientUnits="userSpaceOnUse" x1="18" y1="5" x2="18" y2="19">
		<stop  offset="1.082549e-07" style="stop-color:#FF8B67"/>
		<stop  offset="0.847" style="stop-color:#FFA76A"/>
		<stop  offset="1" style="stop-color:#FFAD6B"/>
		<stop  offset="1" style="stop-color:#FFAD6B"/>
	</linearGradient>
	<path style="fill:url(#SVGID_10_);" d="M25,5h-8.5C12.91,5,10,7.91,10,11.5l0,5.378c0,0.997,0.675,1.928,1.658,2.093
		C12.907,19.181,14,18.212,14,17v-3c0-2.209,1.791-4,4-4h4c2.222,0,4.036-1.836,3.999-4.067C25.991,5.407,25.526,5,25,5z"/>
</g>
<g id="Layer_2">
</g>
</svg>
