<?xml version="1.0" encoding="iso-8859-1"?>
<!-- Generator: Adobe Illustrator 21.0.2, SVG Export Plug-In . SVG Version: 6.00 Build 0)  -->
<svg version="1.1" xmlns="http://www.w3.org/2000/svg" xmlns:xlink="http://www.w3.org/1999/xlink" x="0px" y="0px"
	 viewBox="0 0 64 64" style="enable-background:new 0 0 64 64;" xml:space="preserve">
<g id="Layer_1">
	<radialGradient id="SVGID_1_" cx="32" cy="36" r="28.0179" gradientUnits="userSpaceOnUse">
		<stop  offset="0" style="stop-color:#EFDCB1"/>
		<stop  offset="1.082549e-07" style="stop-color:#EFDCB1"/>
		<stop  offset="0.0922" style="stop-color:#F2E0B9"/>
		<stop  offset="0.415" style="stop-color:#F9ECCF"/>
		<stop  offset="0.7235" style="stop-color:#FDF4DC"/>
		<stop  offset="1" style="stop-color:#FFF6E1"/>
	</radialGradient>
	<path style="fill:url(#SVGID_1_);" d="M43.5,56L43.5,56c-0.828,0-1.5-0.672-1.5-1.5v0c0-0.828,0.672-1.5,1.5-1.5l4.339,0
		c1.021,0,1.988-0.687,2.139-1.697C50.161,50.07,49.2,49,48,49h-1.5c-0.828,0-1.5-0.672-1.5-1.5l0,0c0-0.828,0.672-1.5,1.5-1.5h7
		c2.475,0,4.5-2.025,4.5-4.5v0c0-2.475-2.025-4.5-4.5-4.5H53c-1.657,0-3-1.343-3-3v0c0-1.657,1.343-3,3-3h2.5
		c3.025,0,5.5-2.475,5.5-5.5v0c0-3.025-2.475-5.5-5.5-5.5h-3c-1.381,0-2.5-1.119-2.5-2.5v0c0-1.381,1.119-2.5,2.5-2.5l0.912,0
		c1.139,0,2.202-0.721,2.497-1.821C56.355,11.516,55.096,10,53.5,10h-11c-1.375,0-20.796-1-22-1l-8.844,0
		c-1.179,0-2.303,0.74-2.581,1.885C8.677,12.523,9.924,14,11.5,14H12c1.105,0,2,0.895,2,2v0c0,1.105-0.895,2-2,2l-2.812,0
		c-1.928,0-3.714,1.278-4.102,3.167C4.56,23.727,6.528,26,9,26h1.5c1.381,0,2.5,1.119,2.5,2.5v0c0,1.381-1.119,2.5-2.5,2.5h-3
		C5.025,31,3,33.025,3,35.5v0C3,37.975,5.025,40,7.5,40H15c1.105,0,2,0.895,2,2v0c0,1.105-0.895,2-2,2h-2
		c-1.925,0-3.5,1.575-3.5,3.5v0c0,1.925,1.575,3.5,3.5,3.5h5.5c1.381,0,2.5,1.119,2.5,2.5v0c0,1.381-1.119,2.5-2.5,2.5h-1
		c-1.925,0-3.5,1.575-3.5,3.5v0c0,1.925,1.575,3.5,3.5,3.5l26,0c1.933,0,3.5-1.567,3.5-3.5v0C47,57.567,45.433,56,43.5,56z"/>
	<g>
		<linearGradient id="SVGID_2_" gradientUnits="userSpaceOnUse" x1="25" y1="44" x2="33" y2="44">
			<stop  offset="0" style="stop-color:#42D778"/>
			<stop  offset="0.9964" style="stop-color:#34B171"/>
			<stop  offset="1" style="stop-color:#34B171"/>
		</linearGradient>
		<path style="fill:url(#SVGID_2_);" d="M31,46h-4c-1.1,0-2-0.9-2-2v0c0-1.1,0.9-2,2-2h4c1.1,0,2,0.9,2,2v0C33,45.1,32.1,46,31,46z"
			/>
		<linearGradient id="SVGID_3_" gradientUnits="userSpaceOnUse" x1="39.0625" y1="49" x2="31.0625" y2="49">
			<stop  offset="0" style="stop-color:#42D778"/>
			<stop  offset="0.9964" style="stop-color:#34B171"/>
			<stop  offset="1" style="stop-color:#34B171"/>
		</linearGradient>
		<path style="fill:url(#SVGID_3_);" d="M36,51h-4c-1.1,0-2-0.9-2-2v0c0-1.1,0.9-2,2-2h4c1.1,0,2,0.9,2,2v0C38,50.1,37.1,51,36,51z"
			/>
		<linearGradient id="SVGID_4_" gradientUnits="userSpaceOnUse" x1="25" y1="54" x2="33" y2="54">
			<stop  offset="0" style="stop-color:#42D778"/>
			<stop  offset="0.9964" style="stop-color:#34B171"/>
			<stop  offset="1" style="stop-color:#34B171"/>
		</linearGradient>
		<path style="fill:url(#SVGID_4_);" d="M31,56h-4c-1.1,0-2-0.9-2-2v0c0-1.1,0.9-2,2-2h4c1.1,0,2,0.9,2,2v0C33,55.1,32.1,56,31,56z"
			/>
		<linearGradient id="SVGID_6_" gradientUnits="userSpaceOnUse" x1="29" y1="47.5" x2="34" y2="47.5">
			<stop  offset="0" style="stop-color:#42D778"/>
			<stop  offset="0.9964" style="stop-color:#34B171"/>
			<stop  offset="1" style="stop-color:#34B171"/>
		</linearGradient>
		<path style="fill:url(#SVGID_6_);" d="M31.5,60L31.5,60c-1.381,0-2.5-1.119-2.5-2.5V35h5v22.5C34,58.881,32.881,60,31.5,60z"/>
	</g>
	<g>
		<linearGradient id="SVGID_7_" gradientUnits="userSpaceOnUse" x1="31.5" y1="23" x2="31.5" y2="3">
			<stop  offset="0" style="stop-color:#FF5840"/>
			<stop  offset="0.0072" style="stop-color:#FF5840"/>
			<stop  offset="0.9892" style="stop-color:#FA528C"/>
			<stop  offset="1" style="stop-color:#FA528C"/>
		</linearGradient>
		<path style="fill:url(#SVGID_7_);" d="M31.5,23L31.5,23c-3.575,0-6.5-2.925-6.5-6.5v-7C25,5.925,27.925,3,31.5,3h0
			C35.075,3,38,5.925,38,9.5v7C38,20.075,35.075,23,31.5,23z"/>
		<linearGradient id="SVGID_8_" gradientUnits="userSpaceOnUse" x1="30" y1="38" x2="30" y2="4">
			<stop  offset="0" style="stop-color:#FF805F"/>
			<stop  offset="0.1166" style="stop-color:#FE816B"/>
			<stop  offset="0.4787" style="stop-color:#FD828B"/>
			<stop  offset="0.7825" style="stop-color:#FB839F"/>
			<stop  offset="0.9892" style="stop-color:#FB83A6"/>
			<stop  offset="1" style="stop-color:#FB83A6"/>
		</linearGradient>
		<path style="fill:url(#SVGID_8_);" d="M43,32.05c-2.21,2.97-5.46,5.12-9.18,5.76c-0.02,0-0.04,0.01-0.06,0.01
			c-0.04,0.01-0.08,0.01-0.12,0.02c-0.19,0.03-0.38,0.05-0.57,0.07c-0.02,0-0.05,0.01-0.07,0.01c-0.03,0-0.06,0-0.08,0.01
			c-0.06,0.01-0.12,0.01-0.18,0.01c-0.14,0.02-0.28,0.02-0.43,0.03C32.02,37.99,31.73,38,31.43,38c-0.05,0-0.09,0-0.14-0.01
			c-0.2,0.01-0.4,0-0.6-0.02c-0.21-0.01-0.41-0.02-0.61-0.04c-0.03,0-0.05,0-0.08-0.01c-0.48-0.05-0.95-0.13-1.41-0.23
			c-2.32-0.5-4.44-1.59-6.22-3.11c-0.18-0.15-0.35-0.3-0.52-0.46c-0.67-0.63-1.29-1.32-1.85-2.07c-1.88-2.52-3-5.65-3-8.97V6.158
			c0-1.34,1.21-2.37,2.52-2.12c4.44,0.87,8.52,2.79,11.98,5.49C38.5,14.968,43.01,22.59,43,32.05z"/>
		<linearGradient id="SVGID_9_" gradientUnits="userSpaceOnUse" x1="21.2759" y1="0.7091" x2="21.2759" y2="12.2099">
			<stop  offset="1.082549e-07" style="stop-color:#FFA087"/>
			<stop  offset="0.3459" style="stop-color:#FD9F9E"/>
			<stop  offset="0.7347" style="stop-color:#FC9EB2"/>
			<stop  offset="1" style="stop-color:#FB9EB9"/>
		</linearGradient>
		<path style="opacity:0.7;fill:url(#SVGID_9_);" d="M20.5,6h5.052c-1.913-0.854-3.93-1.508-6.032-1.92C18.21,3.83,17,4.86,17,6.2
			V12h4.5c0.829,0,1.5-0.671,1.5-1.5C23,9.671,22.329,9,21.5,9h-1C19.671,9,19,8.329,19,7.5C19,6.671,19.671,6,20.5,6z"/>
		<linearGradient id="SVGID_10_" gradientUnits="userSpaceOnUse" x1="33" y1="38" x2="33" y2="4">
			<stop  offset="0" style="stop-color:#FF634D"/>
			<stop  offset="0.2043" style="stop-color:#FE6464"/>
			<stop  offset="0.5209" style="stop-color:#FC6581"/>
			<stop  offset="0.7936" style="stop-color:#FA6694"/>
			<stop  offset="0.9892" style="stop-color:#FA669A"/>
			<stop  offset="1" style="stop-color:#FA669A"/>
		</linearGradient>
		<path style="fill:url(#SVGID_10_);" d="M46,6.158V23.08c0,3.32-1.12,6.45-3,8.97c-2.22,2.99-5.5,5.14-9.24,5.77
			c-0.25,0.04-0.51,0.07-0.76,0.1c-0.03,0-0.06,0-0.08,0.01c-0.2,0.02-0.4,0.03-0.61,0.04C32.02,37.99,31.73,38,31.43,38
			c-0.25,0-0.49-0.01-0.74-0.03c-0.21-0.01-0.41-0.02-0.61-0.04c-0.03,0-0.05,0-0.08-0.01c-0.25-0.03-0.51-0.06-0.76-0.1
			c-3.74-0.63-7.02-2.78-9.24-5.77c-0.01-9.46,4.5-17.082,11.5-22.522c3.46-2.7,7.54-4.62,11.98-5.49C44.79,3.788,46,4.818,46,6.158
			z"/>
		<linearGradient id="SVGID_11_" gradientUnits="userSpaceOnUse" x1="36" y1="38" x2="36" y2="18">
			<stop  offset="0" style="stop-color:#FF5840"/>
			<stop  offset="0.0072" style="stop-color:#FF5840"/>
			<stop  offset="0.9892" style="stop-color:#FA528C"/>
			<stop  offset="1" style="stop-color:#FA528C"/>
		</linearGradient>
		<path style="fill:url(#SVGID_11_);" d="M33,18c-1.105,0-2,0.895-2,2c0,1.104,0.895,2,2,2h0.5c0.828,0,1.5,0.672,1.5,1.5
			c0,0.828-0.672,1.5-1.5,1.5h-5c-1.381,0-2.5,1.119-2.5,2.5s1.119,2.5,2.5,2.5h2c0.828,0,1.5,0.672,1.5,1.5
			c0,0.828-0.672,1.5-1.5,1.5c-1.381,0-2.5,1.119-2.5,2.5c0,1.147,0.777,2.103,1.83,2.398c0.525,0.061,1.057,0.099,1.598,0.102
			C39.444,38.039,46,31.1,46,23.083V18H33z"/>
	</g>
	<radialGradient id="SVGID_12_" cx="32.875" cy="30.8749" r="31.417" gradientUnits="userSpaceOnUse">
		<stop  offset="0" style="stop-color:#EFDCB1"/>
		<stop  offset="1.082549e-07" style="stop-color:#EFDCB1"/>
		<stop  offset="0.0922" style="stop-color:#F2E0B9"/>
		<stop  offset="0.415" style="stop-color:#F9ECCF"/>
		<stop  offset="0.7235" style="stop-color:#FDF4DC"/>
		<stop  offset="1" style="stop-color:#FFF6E1"/>
	</radialGradient>
	<circle style="fill:url(#SVGID_12_);" cx="54" cy="51" r="2"/>
	<radialGradient id="SVGID_13_" cx="30" cy="34.3749" r="39.5018" gradientUnits="userSpaceOnUse">
		<stop  offset="0" style="stop-color:#EFDCB1"/>
		<stop  offset="1.082549e-07" style="stop-color:#EFDCB1"/>
		<stop  offset="0.0922" style="stop-color:#F2E0B9"/>
		<stop  offset="0.415" style="stop-color:#F9ECCF"/>
		<stop  offset="0.7235" style="stop-color:#FDF4DC"/>
		<stop  offset="1" style="stop-color:#FFF6E1"/>
	</radialGradient>
	<circle style="fill:url(#SVGID_13_);" cx="4.5" cy="11.5" r="2.5"/>
</g>
<g id="Layer_2">
</g>
</svg>
