<?xml version="1.0" encoding="iso-8859-1"?>
<!-- Generator: Adobe Illustrator 21.0.2, SVG Export Plug-In . SVG Version: 6.00 Build 0)  -->
<svg version="1.1" xmlns="http://www.w3.org/2000/svg" xmlns:xlink="http://www.w3.org/1999/xlink" x="0px" y="0px"
	 viewBox="0 0 64 64" style="enable-background:new 0 0 64 64;" xml:space="preserve">
<g id="Layer_1">
	<radialGradient id="SVGID_1_" cx="32.5" cy="32.6667" r="28.8812" gradientUnits="userSpaceOnUse">
		<stop  offset="0" style="stop-color:#EFDCB1"/>
		<stop  offset="1.082549e-07" style="stop-color:#EFDCB1"/>
		<stop  offset="0.0922" style="stop-color:#F2E0B9"/>
		<stop  offset="0.415" style="stop-color:#F9ECCF"/>
		<stop  offset="0.7235" style="stop-color:#FDF4DC"/>
		<stop  offset="1" style="stop-color:#FFF6E1"/>
	</radialGradient>
	<path style="fill:url(#SVGID_1_);" d="M60,51.667h-7c-1.105,0-2-0.895-2-2v0c0-1.105,0.895-2,2-2l3.288,0
		c2.347,0,4.453-1.704,4.689-4.038c0.271-2.68-1.849-4.962-4.477-4.962H56c-1.105,0-2-0.895-2-2v0c0-1.105,0.895-2,2-2l2.241,0
		c2.868,0,5.442-2.082,5.731-4.936c0.331-3.275-2.26-6.064-5.471-6.064H48v-6l3,0c2.868,0,5.442-2.082,5.731-4.936
		c0.331-3.275-2.26-6.064-5.471-6.064H25.5c-2.505,0-4.628,1.699-5.286,4l-14.516,0c-1.895,0-3.594,1.419-3.693,3.312
		c-0.106,2.018,1.5,3.688,3.495,3.688H7c1.105,0,2,0.895,2,2v0c0,1.105-0.895,2-2,2H5.712c-2.347,0-4.453,1.704-4.689,4.038
		c-0.271,2.68,1.849,4.962,4.477,4.962H10c1.657,0,3,1.343,3,3v0c0,1.657-1.343,3-3,3H9.712c-2.347,0-4.453,1.704-4.689,4.038
		c-0.271,2.68,1.849,4.962,4.477,4.962H14c1.105,0,2,0.895,2,2v0c0,1.105-0.895,2-2,2l-8.288,0c-2.347,0-4.453,1.704-4.689,4.038
		c-0.271,2.68,1.849,4.962,4.477,4.962h26c0.086,0,0.166-0.021,0.25-0.025c0.084,0.007,0.164,0.025,0.25,0.025h28c1.65,0,3-1.35,3-3
		v-1C63,53.017,61.65,51.667,60,51.667z"/>
	<linearGradient id="SVGID_2_" gradientUnits="userSpaceOnUse" x1="41.5" y1="31" x2="41.5" y2="60.1253">
		<stop  offset="0" style="stop-color:#49CFF0"/>
		<stop  offset="0.2071" style="stop-color:#54D3F2"/>
		<stop  offset="0.5719" style="stop-color:#72DEF7"/>
		<stop  offset="1" style="stop-color:#9CEDFF"/>
	</linearGradient>
	<path style="fill:url(#SVGID_2_);" d="M46.412,49H45c-0.552,0-1-0.448-1-1V31h-5v17c0,0.552-0.448,1-1,1h-1.412
		c-1.139,0-2.202,0.721-2.497,1.821C33.645,52.484,34.904,54,36.5,54h10c1.596,0,2.855-1.516,2.409-3.179
		C48.614,49.721,47.551,49,46.412,49z"/>
	<linearGradient id="SVGID_3_" gradientUnits="userSpaceOnUse" x1="41.5" y1="39" x2="41.5" y2="11">
		<stop  offset="0" style="stop-color:#49CFF0"/>
		<stop  offset="0.2071" style="stop-color:#54D3F2"/>
		<stop  offset="0.5719" style="stop-color:#72DEF7"/>
		<stop  offset="1" style="stop-color:#9CEDFF"/>
	</linearGradient>
	<path style="fill:url(#SVGID_3_);" d="M41.5,39L41.5,39c-5.247,0-9.5-4.253-9.5-9.5V11h17c1.105,0,2,0.895,2,2v16.5
		C51,34.747,46.747,39,41.5,39z"/>
	<linearGradient id="SVGID_4_" gradientUnits="userSpaceOnUse" x1="39.5" y1="39" x2="39.5" y2="11.0591">
		<stop  offset="0" style="stop-color:#6CD8F2"/>
		<stop  offset="0.252" style="stop-color:#78DCF4"/>
		<stop  offset="0.7036" style="stop-color:#97E8FA"/>
		<stop  offset="1" style="stop-color:#AFF1FF"/>
	</linearGradient>
	<path style="fill:url(#SVGID_4_);" d="M40.463,39C41.343,38.79,42,38.004,42,37.059c0-1.105-0.895-2-2-2h-2.5
		c-0.828,0-1.5-0.672-1.5-1.5s0.672-1.5,1.5-1.5h3c1.381,0,2.5-1.119,2.5-2.5c0-1.381-1.119-2.5-2.5-2.5h-2
		c-0.828,0-1.5-0.672-1.5-1.5s0.672-1.5,1.5-1.5h4c1.381,0,2.5-1.119,2.5-2.5c0-1.381-1.119-2.5-2.5-2.5h-2
		c-0.828,0-1.5-0.672-1.5-1.5s0.672-1.5,1.5-1.5h4c1.381,0,2.5-1.119,2.5-2.5c0-1.381-1.119-2.5-2.5-2.5H32v18.5
		C32,34.455,35.704,38.483,40.463,39z"/>
	<linearGradient id="SVGID_6_" gradientUnits="userSpaceOnUse" x1="41.5" y1="39" x2="41.5" y2="22">
		<stop  offset="0" style="stop-color:#FF724E"/>
		<stop  offset="0.2139" style="stop-color:#FE7366"/>
		<stop  offset="0.5241" style="stop-color:#FC7383"/>
		<stop  offset="0.7933" style="stop-color:#FB7495"/>
		<stop  offset="0.9892" style="stop-color:#FB749B"/>
		<stop  offset="1" style="stop-color:#FB749B"/>
	</linearGradient>
	<path style="fill:url(#SVGID_6_);" d="M41.5,39L41.5,39c-5.247,0-9.5-4.253-9.5-9.5V22h19v7.5C51,34.747,46.747,39,41.5,39z"/>
	<linearGradient id="SVGID_7_" gradientUnits="userSpaceOnUse" x1="23.5" y1="33" x2="23.5" y2="63.1253">
		<stop  offset="0" style="stop-color:#49CFF0"/>
		<stop  offset="0.2071" style="stop-color:#54D3F2"/>
		<stop  offset="0.5719" style="stop-color:#72DEF7"/>
		<stop  offset="1" style="stop-color:#9CEDFF"/>
	</linearGradient>
	<path style="fill:url(#SVGID_7_);" d="M29.412,52H27c-0.552,0-1-0.448-1-1V33h-5v18c0,0.552-0.448,1-1,1h-2.412
		c-1.139,0-2.202,0.721-2.497,1.821C14.645,55.484,15.904,57,17.5,57h12c1.596,0,2.855-1.516,2.409-3.179
		C31.614,52.721,30.551,52,29.412,52z"/>
	<linearGradient id="SVGID_8_" gradientUnits="userSpaceOnUse" x1="38.4748" y1="38.9409" x2="38.4748" y2="22">
		<stop  offset="0" style="stop-color:#FF805F"/>
		<stop  offset="0.1166" style="stop-color:#FE816B"/>
		<stop  offset="0.4787" style="stop-color:#FD828B"/>
		<stop  offset="0.7825" style="stop-color:#FB839F"/>
		<stop  offset="0.9892" style="stop-color:#FB83A6"/>
		<stop  offset="1" style="stop-color:#FB83A6"/>
	</linearGradient>
	<path style="fill:url(#SVGID_8_);" d="M38.5,24h4c1.209,0,2.218-0.859,2.45-2H32v7.5c0,4.896,3.704,8.924,8.463,9.441
		C41.343,38.731,42,37.945,42,37c0-1.105-0.895-2-2-2h-2.5c-0.828,0-1.5-0.672-1.5-1.5s0.672-1.5,1.5-1.5h3
		c1.381,0,2.5-1.119,2.5-2.5c0-1.381-1.119-2.5-2.5-2.5h-2c-0.828,0-1.5-0.672-1.5-1.5S37.672,24,38.5,24z"/>
	<linearGradient id="SVGID_9_" gradientUnits="userSpaceOnUse" x1="23.5" y1="35" x2="23.5" y2="5">
		<stop  offset="0" style="stop-color:#49CFF0"/>
		<stop  offset="0.2071" style="stop-color:#54D3F2"/>
		<stop  offset="0.5719" style="stop-color:#72DEF7"/>
		<stop  offset="1" style="stop-color:#9CEDFF"/>
	</linearGradient>
	<path style="fill:url(#SVGID_9_);" d="M23.5,35L23.5,35C17.701,35,13,30.299,13,24.5V7c0-1.105,0.895-2,2-2h17c1.105,0,2,0.895,2,2
		v17.5C34,30.299,29.299,35,23.5,35z"/>
	<linearGradient id="SVGID_10_" gradientUnits="userSpaceOnUse" x1="20" y1="35" x2="20" y2="5">
		<stop  offset="0" style="stop-color:#6CD8F2"/>
		<stop  offset="0.252" style="stop-color:#78DCF4"/>
		<stop  offset="0.7036" style="stop-color:#97E8FA"/>
		<stop  offset="1" style="stop-color:#AFF1FF"/>
	</linearGradient>
	<path style="fill:url(#SVGID_10_);" d="M25.442,34.813C26.355,34.441,27,33.547,27,32.5c0-1.381-1.119-2.5-2.5-2.5h-5
		c-0.828,0-1.5-0.672-1.5-1.5s0.672-1.5,1.5-1.5c1.381,0,2.5-1.119,2.5-2.5c0-1.381-1.119-2.5-2.5-2.5h-2
		c-0.828,0-1.5-0.672-1.5-1.5s0.672-1.5,1.5-1.5h1c1.381,0,2.5-1.119,2.5-2.5c0-1.381-1.119-2.5-2.5-2.5H18c-1.105,0-2-0.895-2-2
		c0-1.105,0.895-2,2-2h4.5c1.381,0,2.5-1.119,2.5-2.5C25,6.119,23.881,5,22.5,5H15c-1.105,0-2,0.895-2,2v17.5
		C13,30.299,17.701,35,23.5,35c0.334,0,0.663-0.019,0.989-0.05C24.811,34.918,25.128,34.872,25.442,34.813z"/>
	<linearGradient id="SVGID_11_" gradientUnits="userSpaceOnUse" x1="23.5" y1="35" x2="23.5" y2="16">
		<stop  offset="0" style="stop-color:#FF724E"/>
		<stop  offset="0.2139" style="stop-color:#FE7366"/>
		<stop  offset="0.5241" style="stop-color:#FC7383"/>
		<stop  offset="0.7933" style="stop-color:#FB7495"/>
		<stop  offset="0.9892" style="stop-color:#FB749B"/>
		<stop  offset="1" style="stop-color:#FB749B"/>
	</linearGradient>
	<path style="fill:url(#SVGID_11_);" d="M23.5,35L23.5,35C17.701,35,13,30.299,13,24.5V16h21v8.5C34,30.299,29.299,35,23.5,35z"/>
	<linearGradient id="SVGID_12_" gradientUnits="userSpaceOnUse" x1="20" y1="35" x2="20" y2="16">
		<stop  offset="0" style="stop-color:#FF805F"/>
		<stop  offset="0.1166" style="stop-color:#FE816B"/>
		<stop  offset="0.4787" style="stop-color:#FD828B"/>
		<stop  offset="0.7825" style="stop-color:#FB839F"/>
		<stop  offset="0.9892" style="stop-color:#FB83A6"/>
		<stop  offset="1" style="stop-color:#FB83A6"/>
	</linearGradient>
	<path style="fill:url(#SVGID_12_);" d="M25.442,34.813C26.355,34.441,27,33.547,27,32.5c0-1.381-1.119-2.5-2.5-2.5h-5
		c-0.828,0-1.5-0.672-1.5-1.5s0.672-1.5,1.5-1.5c1.381,0,2.5-1.119,2.5-2.5c0-1.381-1.119-2.5-2.5-2.5h-2
		c-0.828,0-1.5-0.672-1.5-1.5s0.672-1.5,1.5-1.5h1c1.381,0,2.5-1.119,2.5-2.5c0-0.171-0.018-0.338-0.05-0.5H13v8.5
		C13,30.299,17.701,35,23.5,35c0.334,0,0.663-0.019,0.989-0.05C24.811,34.918,25.128,34.872,25.442,34.813z"/>
</g>
<g id="Layer_2">
</g>
</svg>
