<?xml version="1.0" encoding="iso-8859-1"?>
<!-- Generator: Adobe Illustrator 21.0.2, SVG Export Plug-In . SVG Version: 6.00 Build 0)  -->
<svg version="1.1" xmlns="http://www.w3.org/2000/svg" xmlns:xlink="http://www.w3.org/1999/xlink" x="0px" y="0px"
	 viewBox="0 0 64 64" style="enable-background:new 0 0 64 64;" xml:space="preserve">
<g id="Layer_1">
	
		<radialGradient id="SVGID_1_" cx="-288" cy="-96" r="1" gradientTransform="matrix(25.511 0 0 -25.511 7379.1758 -2428.0586)" gradientUnits="userSpaceOnUse">
		<stop  offset="0" style="stop-color:#AAEDFF"/>
		<stop  offset="0.3306" style="stop-color:#C1F2FF"/>
		<stop  offset="0.7382" style="stop-color:#D7F7FF"/>
		<stop  offset="1" style="stop-color:#DFF9FF"/>
	</radialGradient>
	<path style="fill:url(#SVGID_1_);" d="M52,5H37h-5H15c-2.209,0-4,1.791-4,4c0,2.209,1.791,4,4,4h2c1.105,0,2,0.895,2,2l0,0l0,0
		c0,1.104-0.896,2-2,2H7c-2.209,0-4,1.791-4,4c0,2.209,1.791,4,4,4h4c1.105,0,2,0.895,2,2l0,0l0,0c0,1.104-0.895,2-2,2H9
		c-2.209,0-4,1.791-4,4c0,2.209,1.791,4,4,4h48c2.209,0,4-1.791,4-4c0-2.209-1.791-4-4-4h-6c-1.105,0-2-0.896-2-2l0,0l0,0
		c0-1.105,0.895-2,2-2c2.209,0,4-1.791,4-4c0-2.209-1.791-4-4-4h-5c-1.104,0-2-0.896-2-2l0,0l0,0c0-1.105,0.896-2,2-2h6
		c2.209,0,4-1.791,4-4C56,6.791,54.209,5,52,5"/>
	<g>
		<linearGradient id="SVGID_2_" gradientUnits="userSpaceOnUse" x1="31.5" y1="28" x2="31.5" y2="18">
			<stop  offset="0" style="stop-color:#FF5840"/>
			<stop  offset="0.0072" style="stop-color:#FF5840"/>
			<stop  offset="0.9892" style="stop-color:#FA528C"/>
			<stop  offset="1" style="stop-color:#FA528C"/>
		</linearGradient>
		<rect x="30" y="18" style="fill:url(#SVGID_2_);" width="3" height="10"/>
		<linearGradient id="SVGID_3_" gradientUnits="userSpaceOnUse" x1="31.5" y1="25.15" x2="31.5" y2="9">
			<stop  offset="0" style="stop-color:#FF5840"/>
			<stop  offset="0.0072" style="stop-color:#FF5840"/>
			<stop  offset="0.9892" style="stop-color:#FA528C"/>
			<stop  offset="1" style="stop-color:#FA528C"/>
		</linearGradient>
		<path style="fill:url(#SVGID_3_);" d="M40.887,12.919c-0.406-1.943-2.013-3.488-3.968-3.837c-2.006-0.358-3.828,0.483-4.903,1.919
			c-0.253,0.338-0.78,0.338-1.032,0c-1.076-1.436-2.897-2.277-4.903-1.919c-1.954,0.349-3.562,1.893-3.968,3.837
			c-0.383,1.833,0.237,3.539,1.412,4.675l-0.002,0.001l6.875,7.095c0.606,0.613,1.597,0.613,2.203,0l6.872-7.093l-0.001,0
			C40.649,16.461,41.27,14.754,40.887,12.919z"/>
	</g>
	
		<linearGradient id="SVGID_4_" gradientUnits="userSpaceOnUse" x1="-288" y1="-95.6875" x2="-287" y2="-95.6875" gradientTransform="matrix(1.000000e-15 -16 -16 -1.000000e-15 -1504.5 -4566)">
		<stop  offset="0" style="stop-color:#F1BB5D"/>
		<stop  offset="0.4256" style="stop-color:#FBC080"/>
		<stop  offset="0.6721" style="stop-color:#FFC28F"/>
		<stop  offset="1" style="stop-color:#FFC28F"/>
	</linearGradient>
	<path style="fill:url(#SVGID_4_);" d="M27.5,29c-0.828,0-1.5,0.671-1.5,1.5v2c0,0.828-0.672,1.5-1.5,1.5
		c-0.828,0-1.5-0.672-1.5-1.5c0-0.829-0.672-1.5-1.5-1.5c-0.828,0-1.5,0.671-1.5,1.5V34c0,1.105-0.896,2-2,2c-1.105,0-2-0.895-2-2
		v-3l0,0v6v4h15h1h5c-1.105,0-2-0.896-2-2c0-1.104-0.896-2-2-2h-1c-0.811,0-1.509-0.483-1.823-1.177C29.483,35.509,29,34.811,29,34
		v-3.5C29,29.671,28.328,29,27.5,29"/>
	
		<linearGradient id="SVGID_6_" gradientUnits="userSpaceOnUse" x1="-288" y1="-96.0074" x2="-287" y2="-96.0074" gradientTransform="matrix(1.000000e-15 -12 -12 -1.000000e-15 -1113.5 -3415)">
		<stop  offset="0" style="stop-color:#FFAC67"/>
		<stop  offset="1" style="stop-color:#FFAD6B"/>
		<stop  offset="1" style="stop-color:#FFAD6B"/>
	</linearGradient>
	<path style="fill:url(#SVGID_6_);" d="M41.5,30c-0.828,0-1.5,0.671-1.5,1.5V32v1c0,1.105-0.895,2-2,2s-2-0.895-2-2v-0.5
		c0-0.829-0.672-1.5-1.5-1.5c-0.828,0-1.5,0.671-1.5,1.5V34c0,1.105-0.896,2-2,2c-0.293,0-0.572-0.063-0.823-0.177
		C30.491,36.517,31.189,37,32,37h1c1.104,0,2,0.896,2,2c0,1.105,0.895,2,2,2h10v-4v-3c0,1.105-0.896,2-2,2c-1.104,0-2-0.895-2-2
		v-2.5C43,30.671,42.328,30,41.5,30"/>
	
		<linearGradient id="SVGID_7_" gradientUnits="userSpaceOnUse" x1="-288" y1="-96" x2="-287" y2="-96" gradientTransform="matrix(1.000000e-15 -10 -10 -1.000000e-15 -928.5 -2844)">
		<stop  offset="0" style="stop-color:#FF5C4C"/>
		<stop  offset="0.2214" style="stop-color:#FD5D65"/>
		<stop  offset="0.5266" style="stop-color:#FC5E82"/>
		<stop  offset="0.793" style="stop-color:#FA5F93"/>
		<stop  offset="0.9892" style="stop-color:#FA5F99"/>
		<stop  offset="1" style="stop-color:#FA5F99"/>
	</linearGradient>
	<path style="fill:url(#SVGID_7_);" d="M42,26h-1h-4h-3h-4h-3h-4h-2c-2.762,0-5,2.239-5,5l0,0v3c0,1.105,0.896,2,2,2
		c1.104,0,2-0.895,2-2v-1.5c0-0.829,0.672-1.5,1.5-1.5c0.828,0,1.5,0.671,1.5,1.5c0,0.828,0.672,1.5,1.5,1.5
		c0.828,0,1.5-0.672,1.5-1.5v-2c0-0.829,0.672-1.5,1.5-1.5c0.828,0,1.5,0.671,1.5,1.5V34c0,0.811,0.483,1.509,1.177,1.823
		C30.428,35.937,30.707,36,31,36c1.105,0,2-0.895,2-2v-1.5c0-0.829,0.672-1.5,1.5-1.5c0.828,0,1.5,0.671,1.5,1.5V33
		c0,1.105,0.895,2,2,2s2-0.895,2-2v-1v-0.5c0-0.829,0.672-1.5,1.5-1.5c0.828,0,1.5,0.671,1.5,1.5V34c0,1.105,0.896,2,2,2
		c1.105,0,2-0.895,2-2l0,0v-3C47,28.239,44.762,26,42,26"/>
	
		<linearGradient id="SVGID_8_" gradientUnits="userSpaceOnUse" x1="-288" y1="-96" x2="-287" y2="-96" gradientTransform="matrix(1.000000e-15 -16 -16 -1.000000e-15 -1504.5 -4551)">
		<stop  offset="0" style="stop-color:#F1BB5D"/>
		<stop  offset="0.4256" style="stop-color:#FBC080"/>
		<stop  offset="0.6721" style="stop-color:#FFC28F"/>
		<stop  offset="1" style="stop-color:#FFC28F"/>
	</linearGradient>
	<path style="fill:url(#SVGID_8_);" d="M17.5,44c-0.828,0-1.5,0.672-1.5,1.5v2c0,0.828-0.672,1.5-1.5,1.5
		c-0.828,0-1.5-0.672-1.5-1.5c0-0.828-0.672-1.5-1.5-1.5c-0.828,0-1.5,0.672-1.5,1.5V51c0,1.105-0.896,2-2,2c-1.105,0-2-0.895-2-2v6
		h51H20c-1.105,0-2-0.896-2-2c0-1.105,0.895-2,2-2h18c1.105,0,2-0.895,2-2c0-1.104-0.895-2-2-2h-3c-0.091,0-0.18-0.006-0.268-0.018
		C34.656,48.994,34.579,49,34.5,49c-0.828,0-1.5-0.672-1.5-1.5c0-0.828-0.672-1.5-1.5-1.5S30,46.672,30,47.5V49c0,1.105-0.895,2-2,2
		c-1.104,0-2-0.895-2-2v-1.5c0-0.828-0.672-1.5-1.5-1.5c-0.828,0-1.5,0.672-1.5,1.5V49c0,1.105-0.896,2-2,2c-1.105,0-2-0.895-2-2
		v-3.5C19,44.672,18.328,44,17.5,44"/>
	
		<linearGradient id="SVGID_9_" gradientUnits="userSpaceOnUse" x1="-288" y1="-96" x2="-287" y2="-96" gradientTransform="matrix(6.090000e-13 -5.9219 -5.9219 -6.090000e-13 -537.0068 -1643.2705)">
		<stop  offset="0" style="stop-color:#49CFF0"/>
		<stop  offset="0.2071" style="stop-color:#54D3F2"/>
		<stop  offset="0.5719" style="stop-color:#72DEF7"/>
		<stop  offset="1" style="stop-color:#9CEDFF"/>
	</linearGradient>
	<path style="fill:url(#SVGID_9_);" d="M59,57h-2H6H4c-1.105,0-2,0.895-2,2s0.896,2,2,2h55c1.105,0,2-0.895,2-2S60.104,57,59,57"/>
	
		<linearGradient id="SVGID_10_" gradientUnits="userSpaceOnUse" x1="-288" y1="-96" x2="-287" y2="-96" gradientTransform="matrix(0 -4 -4 0 -370 -1095)">
		<stop  offset="0" style="stop-color:#FFAC67"/>
		<stop  offset="1" style="stop-color:#FFAD6B"/>
		<stop  offset="1" style="stop-color:#FFAD6B"/>
	</linearGradient>
	<path style="fill:url(#SVGID_10_);" d="M14,53c-1.104,0-2,0.896-2,2c0,1.104,0.896,2,2,2c1.105,0,2-0.896,2-2
		C16,53.896,15.104,53,14,53"/>
	
		<linearGradient id="SVGID_11_" gradientUnits="userSpaceOnUse" x1="-288" y1="-96" x2="-287" y2="-96" gradientTransform="matrix(1.000000e-15 -14 -14 -1.000000e-15 -1306.5 -3975)">
		<stop  offset="0" style="stop-color:#FFAC67"/>
		<stop  offset="1" style="stop-color:#FFAD6B"/>
		<stop  offset="1" style="stop-color:#FFAD6B"/>
	</linearGradient>
	<path style="fill:url(#SVGID_11_);" d="M37.5,44c-0.828,0-1.5,0.672-1.5,1.5v2c0,0.749-0.55,1.371-1.268,1.482
		C34.82,48.994,34.909,49,35,49h3c1.105,0,2,0.896,2,2c0,1.105-0.895,2-2,2H20c-1.105,0-2,0.896-2,2c0,1.104,0.895,2,2,2h37v-4v-4
		c0,1.105-0.895,2-2,2s-2-0.895-2-2v-2.5c0-0.828-0.672-1.5-1.5-1.5l0,0c-0.828,0-1.5,0.672-1.5,1.5V47v3c0,1.105-0.896,2-2,2
		c-1.105,0-2-0.895-2-2v-2.5c0-0.828-0.672-1.5-1.5-1.5c-0.828,0-1.5,0.672-1.5,1.5V48c0,1.105-0.895,2-2,2s-2-0.895-2-2v-2.5
		C39,44.672,38.328,44,37.5,44"/>
	
		<linearGradient id="SVGID_12_" gradientUnits="userSpaceOnUse" x1="-288" y1="-96" x2="-287" y2="-96" gradientTransform="matrix(1.000000e-15 -12 -12 -1.000000e-15 -1120.5 -3403)">
		<stop  offset="0" style="stop-color:#FF5C4C"/>
		<stop  offset="0.2214" style="stop-color:#FD5D65"/>
		<stop  offset="0.5266" style="stop-color:#FC5E82"/>
		<stop  offset="0.793" style="stop-color:#FA5F93"/>
		<stop  offset="0.9892" style="stop-color:#FA5F99"/>
		<stop  offset="1" style="stop-color:#FA5F99"/>
	</linearGradient>
	<path style="fill:url(#SVGID_12_);" d="M52,41h-5H37h-5h-1H16h-5c-2.762,0-5,2.238-5,5v5c0,1.105,0.895,2,2,2c1.104,0,2-0.895,2-2
		v-3.5c0-0.828,0.672-1.5,1.5-1.5c0.828,0,1.5,0.672,1.5,1.5c0,0.828,0.672,1.5,1.5,1.5c0.828,0,1.5-0.672,1.5-1.5v-2
		c0-0.828,0.672-1.5,1.5-1.5s1.5,0.672,1.5,1.5V49c0,1.105,0.895,2,2,2c1.104,0,2-0.895,2-2v-1.5c0-0.828,0.672-1.5,1.5-1.5
		c0.828,0,1.5,0.672,1.5,1.5V49c0,1.105,0.896,2,2,2c1.105,0,2-0.895,2-2v-1.5c0-0.828,0.672-1.5,1.5-1.5s1.5,0.672,1.5,1.5
		c0,0.828,0.672,1.5,1.5,1.5c0.079,0,0.156-0.006,0.232-0.018C35.45,48.871,36,48.249,36,47.5v-2c0-0.828,0.672-1.5,1.5-1.5
		c0.828,0,1.5,0.672,1.5,1.5V48c0,1.105,0.895,2,2,2s2-0.895,2-2v-0.5c0-0.828,0.672-1.5,1.5-1.5c0.828,0,1.5,0.672,1.5,1.5V50
		c0,1.105,0.896,2,2,2c1.104,0,2-0.895,2-2v-3v-0.5c0-0.828,0.672-1.5,1.5-1.5l0,0l0,0c0.828,0,1.5,0.672,1.5,1.5V49
		c0,1.105,0.895,2,2,2s2-0.895,2-2l0,0v-3l0,0c0-0.343-0.035-0.677-0.101-1c-0.444-2.184-2.31-3.851-4.589-3.991c0,0,0,0-0.001,0
		c-0.004,0-0.008,0-0.012-0.001c-0.001,0-0.002,0-0.003,0c-0.004,0-0.007,0-0.011-0.001c-0.001,0-0.003,0-0.004,0
		c-0.003,0-0.007,0-0.01-0.001c-0.002,0-0.003,0-0.005,0c-0.003,0-0.007,0-0.01-0.001c-0.001,0-0.003,0-0.005,0
		c-0.004,0-0.007,0-0.01,0c0,0-0.001,0-0.001,0c-0.008,0-0.016-0.001-0.023-0.001c-0.001,0-0.003,0-0.004,0
		c-0.003,0-0.006,0-0.009,0c-0.002,0-0.004,0-0.006,0c-0.003,0-0.005,0-0.008,0c-0.002,0-0.005,0-0.007,0c-0.003,0-0.005,0-0.008,0
		c-0.002,0-0.005,0-0.007,0c-0.003,0-0.005,0-0.008,0c-0.003,0-0.005,0-0.008,0c-0.002,0-0.005,0-0.007,0c-0.003,0-0.006,0-0.009,0
		c-0.002,0-0.003,0-0.005,0c-0.004,0-0.008,0-0.012,0c-0.003,0-0.005,0-0.008,0c-0.004,0-0.007,0-0.011,0c-0.002,0-0.004,0-0.005,0
		c-0.003,0-0.007,0-0.01,0c-0.002,0-0.004,0-0.006,0c-0.003,0-0.006,0-0.009,0c-0.002,0-0.004,0-0.006,0c-0.003,0-0.006,0-0.009,0
		c-0.002,0-0.004,0-0.007,0c-0.003,0-0.006,0-0.009,0c-0.002,0-0.004,0-0.006,0c-0.003,0-0.006,0-0.01,0c-0.002,0-0.004,0-0.006,0
		C52.01,41,52.005,41,52,41"/>
</g>
<g id="Layer_2">
</g>
</svg>
